<?xml version="1.0" encoding="UTF-8" standalone="no"?>
<!-- Created with Inkscape (http://www.inkscape.org/) -->

<svg
   version="1.1"
   id="svg2"
   width="56.693333"
   height="56.693333"
   viewBox="0 0 56.693333 56.693333"
   sodipodi:docname="pgups.eps"
   xmlns:inkscape="http://www.inkscape.org/namespaces/inkscape"
   xmlns:sodipodi="http://sodipodi.sourceforge.net/DTD/sodipodi-0.dtd"
   xmlns="http://www.w3.org/2000/svg"
   xmlns:svg="http://www.w3.org/2000/svg">
  <defs
     id="defs6" />
  <sodipodi:namedview
     id="namedview4"
     pagecolor="#ffffff"
     bordercolor="#000000"
     borderopacity="0.25"
     inkscape:showpageshadow="2"
     inkscape:pageopacity="0.0"
     inkscape:pagecheckerboard="0"
     inkscape:deskcolor="#d1d1d1" />
  <g
     id="g8"
     inkscape:groupmode="layer"
     inkscape:label="ink_ext_XXXXXX"
     transform="matrix(1.3333333,0,0,-1.3333333,0,56.693333)">
    <g
       id="g10"
       transform="scale(0.1)">
      <path
         d="m 285.52,35.9766 c 0.199,0.0976 0.398,0.3476 0.597,0.7422 0.098,0.3984 0.074,0.7695 -0.078,1.1171 -0.144,0.3946 -0.394,0.6914 -0.742,0.8907 -0.348,0.1484 -0.668,0.1992 -0.965,0.1484 -0.445,-0.0977 -1.113,-0.3477 -2.008,-0.7422 l -1.781,-0.668 1.262,-3.0507 z m -7.727,8.3984 2.004,-5.0547 0.445,0.2227 c 0.746,0.25 1.242,0.5976 1.488,1.0429 0.297,0.3946 0.543,1.2852 0.743,2.6758 l 0.746,3.3438 2.82,1.1172 L 285,42.2969 c -0.246,-0.5977 -0.543,-1.0938 -0.891,-1.4883 1.188,0.2461 2.129,0.1719 2.825,-0.2227 0.793,-0.3984 1.339,-1.0156 1.636,-1.8593 0.297,-0.7422 0.371,-1.461 0.223,-2.1563 -0.148,-0.793 -0.473,-1.3633 -0.969,-1.7109 -0.445,-0.3946 -1.312,-0.8672 -2.601,-1.4102 l -5.055,-2.082 -4.828,12.043 z m 22.969,10.8555 6.093,-11.375 -2.156,-1.1875 -4.011,7.6562 -0.598,-10.1094 -2.305,-1.1914 -6.019,11.375 2.156,1.1875 3.937,-7.5078 0.672,9.961 z m 54.558,27.875 -1.781,-1.8594 -7.809,7.2852 -2.527,-2.6758 7.809,-7.3594 -1.785,-1.9336 -7.805,7.3594 -2.602,-2.8242 7.805,-7.3594 -1.785,-1.9336 -7.805,7.3594 -0.816,-0.8164 -3.571,3.4179 1.415,1.5625 2.082,-1.9336 9.738,10.5547 z m -25.941,-7.6563 8.101,-10.0351 -7.359,-6.0235 -1.41,1.711 5.426,4.3867 -1.785,2.2305 -5.055,-4.0899 -1.336,1.7109 4.98,4.086 -2.156,2.75 -5.574,-4.6055 -1.414,1.707 z m -15.609,-11.9687 2.156,1.4883 7.058,-10.8555 -2.226,-1.4844 -2.75,4.3086 -4.238,-2.8242 2.75,-4.2344 -2.157,-1.4141 -7.062,10.8516 2.23,1.4141 3.047,-4.7578 4.238,2.8242 z m 41.031,35.6797 c -0.149,-0.3477 -0.199,-0.6914 -0.149,-1.0391 0.051,-0.3477 0.25,-0.6445 0.594,-0.8945 0.547,-0.3946 1.02,-0.4922 1.414,-0.2969 0.496,0.1484 1.067,0.6211 1.707,1.4141 l 1.563,2.0822 -2.676,2.152 z m 6.84,0 -2.082,-2.8243 c -0.543,-0.6914 -1.141,-1.2382 -1.786,-1.6367 -0.543,-0.3437 -1.21,-0.5195 -2.003,-0.5195 -0.793,0.1016 -1.512,0.3984 -2.157,0.8945 -0.644,0.4922 -1.09,1.1406 -1.34,1.9297 -0.199,0.6953 -0.222,1.3633 -0.074,2.0078 0.102,0.4453 0.52,1.1643 1.266,2.1563 l 3.715,4.832 10.109,-8.0273 -5.871,-7.5821 -1.711,1.336 4.313,5.5781 z m 4.238,13.9768 c 0.297,-0.992 1.062,-1.883 2.305,-2.676 1.285,-0.746 2.402,-1.043 3.343,-0.895 0.942,0.149 1.707,0.672 2.305,1.563 0.496,0.941 0.645,1.883 0.445,2.824 -0.297,0.992 -1.066,1.86 -2.304,2.602 -1.239,0.793 -2.356,1.09 -3.344,0.894 -0.992,-0.148 -1.762,-0.672 -2.305,-1.562 -0.547,-0.793 -0.695,-1.711 -0.445,-2.75 z m 10.851,-0.52 c -0.148,-0.941 -0.496,-1.808 -1.039,-2.601 -0.941,-1.586 -2.23,-2.578 -3.867,-2.973 -1.636,-0.301 -3.32,0.098 -5.054,1.187 -1.735,1.09 -2.825,2.426 -3.27,4.012 -0.348,1.586 -0.051,3.199 0.891,4.832 1.039,1.637 2.351,2.629 3.941,2.977 1.633,0.297 3.293,-0.102 4.981,-1.192 1.136,-0.691 1.957,-1.437 2.453,-2.23 0.445,-0.594 0.742,-1.238 0.89,-1.934 0.149,-0.84 0.172,-1.535 0.074,-2.078 z M 55.5273,125.18 44.082,119.305 l -1.9336,3.793 c -0.7421,1.586 -1.1406,2.527 -1.1914,2.824 -0.1953,0.644 -0.1211,1.387 0.2266,2.23 0.3437,0.743 0.9883,1.336 1.9297,1.786 0.7461,0.394 1.3867,0.57 1.9336,0.519 0.7422,0 1.289,-0.125 1.6367,-0.371 0.4961,-0.199 0.8906,-0.496 1.1875,-0.895 l 2.1562,-3.863 4.3125,2.231 z m -8.1015,0.445 c -0.4453,0.941 -0.8164,1.512 -1.1133,1.711 -0.2969,0.246 -0.6211,0.394 -0.9687,0.445 -0.3477,0.098 -0.668,0.024 -0.9649,-0.222 -0.3984,-0.149 -0.6953,-0.45 -0.8945,-0.895 -0.1485,-0.348 -0.1485,-0.742 0,-1.187 0.1015,-0.446 0.3476,-1.016 0.7461,-1.711 l 0.5937,-1.114 3.2696,1.633 z m 61.9222,-60.7344 -6.246,-8.6953 3.046,-2.2305 -1.261,-1.7851 -8.2503,6.0234 1.2617,1.7852 3.0466,-2.2305 6.321,8.6953 z m -26.1683,4.461 1.4141,1.6367 5.2773,-4.5352 1.8594,2.1563 -4.9063,4.2383 1.4102,1.6328 4.9062,-4.2344 2.3047,2.6758 -5.4258,4.7578 1.4141,1.6328 7.3594,-6.4648 -8.4024,-9.7383 z m -6.5391,9.5898 2.6758,2.4531 -0.9687,1.043 c -0.7422,0.8398 -1.2618,1.3125 -1.5586,1.4102 -0.3477,0.1484 -0.668,0.1992 -0.9688,0.1484 -0.3437,-0.0508 -0.668,-0.1953 -0.9648,-0.4453 -0.3477,-0.4453 -0.5196,-0.8164 -0.5196,-1.1133 -0.0507,-0.4492 0.0469,-0.8437 0.2969,-1.1914 0.2969,-0.4453 0.6914,-0.918 1.1875,-1.4102 z m 1.1875,7.0625 c 0.4453,-0.2969 1.0899,-0.918 1.9336,-1.8594 l 1.1914,-1.2617 3.4922,3.3438 1.7852,-1.9336 -9.3672,-8.7696 -2.8242,3.0469 c -1.1914,1.2383 -1.8594,2.0313 -2.0078,2.3789 -0.3477,0.6446 -0.4454,1.3867 -0.2969,2.2305 0.0469,0.7422 0.4687,1.5117 1.2617,2.3047 0.6445,0.5429 1.2383,0.8906 1.7852,1.039 0.5429,0.1485 1.0898,0.1758 1.6367,0.0743 0.6914,-0.1993 1.164,-0.3946 1.4101,-0.5938 z M 65.043,103.027 c 0.6445,0.496 1.3867,0.793 2.2304,0.891 0.793,0 1.4375,-0.148 1.9336,-0.445 0.543,-0.297 1.1407,-0.895 1.7813,-1.785 l 3.7187,-4.7583 -10.1093,-7.9531 -5.9454,7.582 1.7071,1.3398 4.3125,-5.5781 2.3789,1.8594 -2.1563,2.75 c -0.5468,0.6953 -0.9414,1.4141 -1.1875,2.1562 -0.25,0.5938 -0.25,1.2891 0,2.0821 0.1953,0.695 0.6407,1.312 1.336,1.859 z m 1.0429,-3.4215 c 0.0977,-0.5938 0.4454,-1.2617 1.0391,-2.0039 l 1.6367,-2.0821 2.6758,2.0821 -2.6758,3.3434 c -0.3984,0.2 -0.7187,0.297 -0.9687,0.297 -0.4453,0 -0.793,-0.125 -1.0391,-0.371 -0.4453,-0.25 -0.668,-0.668 -0.668,-1.2655 z m -4.7578,14.7185 c 0.6407,-0.097 1.211,-0.496 1.7071,-1.187 l 0.8203,-1.563 -1.6367,-1.039 -0.5196,0.891 c -0.2969,0.496 -0.6211,0.793 -0.9687,0.89 -0.2461,0.102 -0.7657,0.079 -1.5586,-0.074 l -5.3516,-8.992 -1.5625,2.453 4.0899,6.168 -6.9883,-1.41 -1.4883,2.305 10.6289,1.558 c 1.1406,0.149 2.082,0.149 2.8281,0 z m 61.3989,-60.5076 -6.168,3.5703 1.039,1.9297 8.472,-4.9062 -6.39,-11.2227 -8.25,4.7578 1.039,1.9336 6.023,-3.4961 1.41,2.4531 -5.574,3.2696 1.039,1.8593 5.649,-3.1953 z m 19.328,-7.5078 -5.426,-11.6719 -9.293,4.3125 5.426,11.7461 2.379,-1.1172 -4.536,-9.7383 4.536,-2.1523 4.535,9.7383 z m -105.0355,92.8434 10.0352,3.868 0.8906,-2.454 -11.9687,-4.609 -3.1211,8.176 2.0078,0.746 z m -8.4726,21.485 c 0.3945,0.793 1.0625,1.437 2.0039,1.933 l 1.2656,-2.304 c -0.5469,-0.297 -0.9922,-0.746 -1.3398,-1.34 -0.1993,-0.543 -0.2227,-1.164 -0.0743,-1.86 0.25,-0.988 0.7696,-1.66 1.5625,-2.003 0.8438,-0.45 2.0079,-0.45 3.4922,0 1.586,0.445 2.6289,1.015 3.125,1.707 0.4922,0.746 0.6172,1.585 0.3711,2.527 -0.1484,0.644 -0.5234,1.164 -1.1172,1.562 -0.4961,0.348 -1.2382,0.52 -2.2304,0.52 l 0.0742,2.601 c 1.4375,0 2.6289,-0.343 3.5703,-1.039 0.8398,-0.644 1.4609,-1.66 1.8555,-3.046 0.4492,-1.637 0.25,-3.149 -0.5938,-4.536 -0.8437,-1.339 -2.2539,-2.304 -4.2344,-2.898 -2.082,-0.547 -3.8164,-0.422 -5.207,0.371 -1.4375,0.742 -2.3789,1.981 -2.8242,3.715 -0.4453,1.488 -0.3438,2.851 0.3008,4.09 z m 4.1601,18.359 3.1953,2.379 0.5235,-3.047 -3.793,-2.676 -1.039,-1.039 c -0.1016,-0.347 -0.125,-0.695 -0.0743,-1.043 l 5.5743,1.043 0.4453,-2.601 -12.6368,-2.231 -0.4453,2.528 5.3516,0.964 c -0.1484,0.594 -0.3711,0.965 -0.668,1.114 -0.25,0.148 -0.9414,0.347 -2.082,0.597 -1.5352,0.297 -2.4805,0.668 -2.8242,1.114 -0.3985,0.496 -0.7188,1.34 -0.9688,2.527 l -0.0742,0.371 1.8594,0.301 0.0742,-0.375 c 0.0508,-0.496 0.1719,-0.867 0.3711,-1.113 0.25,-0.25 0.4961,-0.399 0.7422,-0.45 0.1992,-0.097 0.7695,-0.222 1.7109,-0.371 l 1.1914,-0.371 c 0.2969,-0.047 0.6446,-0.32 1.0391,-0.816 0,0.547 0.2226,1.09 0.668,1.637 0.4961,0.492 1.1171,1.015 1.8593,1.558 z m 1.043,16.727 -8.3281,-1.039 8.9961,-4.164 0.2968,-2.602 -12.7851,-1.563 -0.2969,2.379 8.5469,1.039 -9.1445,4.165 -0.2969,2.601 12.7109,1.563 z m -13.457,12.34 8.5508,0.148 -8.625,5.055 -0.0743,2.601 12.8594,0.223 v -2.453 l -8.3242,-0.149 8.4726,-5.054 v -2.602 L 20.293,205.609 Z m -0.7422,2.675 c 0.0976,-0.742 -0.0977,-1.386 -0.5938,-1.933 -0.3476,-0.395 -0.9687,-0.692 -1.8593,-0.891 l -0.0743,1.262 c 0.4454,0 0.7696,0.148 0.9649,0.445 0.1992,0.199 0.2969,0.57 0.2969,1.117 0,0.348 -0.0977,0.719 -0.2969,1.114 -0.2461,0.25 -0.5703,0.375 -0.9649,0.375 l -0.0742,1.187 c 0.793,0 1.4375,-0.246 1.9336,-0.742 0.4453,-0.547 0.668,-1.192 0.668,-1.934 z m 16.2031,33.078 -12.6367,2.528 1.7109,8.551 2.0821,-0.372 -1.1172,-6.023 10.4843,-2.082 z m 0.3711,28.176 c 1.9844,-0.496 3.3984,-1.488 4.2383,-2.976 0.8437,-1.438 0.9922,-3.047 0.4453,-4.832 -0.5938,-1.883 -1.5859,-3.196 -2.9727,-3.938 -1.4843,-0.793 -3.1953,-0.891 -5.1289,-0.297 -1.3359,0.395 -2.3281,0.891 -2.9726,1.485 -0.4453,0.398 -0.8906,0.941 -1.3399,1.636 -0.3945,0.696 -0.6172,1.336 -0.6679,1.934 -0.0977,0.742 0,1.684 0.2968,2.824 0.4961,1.785 1.4649,3.098 2.8985,3.938 1.4883,0.746 3.2226,0.82 5.2031,0.226 z m -4.2344,-2.601 c -0.8945,-0.348 -1.4883,-1.067 -1.7851,-2.157 -0.2969,-0.992 -0.1719,-1.933 0.3711,-2.828 0.4961,-0.789 1.4609,-1.41 2.8984,-1.855 1.4883,-0.399 2.6523,-0.371 3.4961,0.074 0.8906,0.445 1.4844,1.164 1.7852,2.156 0.2968,0.989 0.1718,1.907 -0.375,2.75 -0.4961,0.793 -1.4844,1.438 -2.9727,1.934 -1.4375,0.394 -2.5781,0.371 -3.418,-0.074 z m 38.5039,61.398 -4.832,1.637 2.6758,-4.387 z m -6.2422,4.684 13.2305,-4.164 -1.7851,-2.231 -2.9727,1.043 -3.2695,-4.09 1.6328,-2.676 -1.707,-2.156 -6.8399,12.117 z m 15.1641,12.34 c -0.4961,0 -0.8672,-0.125 -1.1172,-0.372 -0.1953,-0.101 -0.6679,-0.519 -1.4101,-1.265 l -0.8164,-0.891 2.6015,-2.601 0.9649,1.039 c 0.7422,0.746 1.1875,1.289 1.3359,1.636 0.1016,0.446 0.125,0.793 0.0781,1.039 -0.1015,0.399 -0.2734,0.696 -0.5234,0.895 -0.2969,0.348 -0.668,0.52 -1.1133,0.52 z m 3.7149,-3.344 c -0.1954,-0.399 -0.7657,-1.09 -1.7071,-2.082 l -1.1914,-1.192 3.4961,-3.418 -1.7851,-1.859 -9.293,8.996 2.8984,2.973 c 1.043,1.09 1.8086,1.808 2.3047,2.156 0.6953,0.348 1.4375,0.496 2.2305,0.445 0.7422,-0.097 1.5117,-0.496 2.3047,-1.187 0.5468,-0.645 0.9179,-1.215 1.1132,-1.711 0.1524,-0.645 0.1993,-1.215 0.1524,-1.711 -0.1016,-0.543 -0.2734,-1.016 -0.5234,-1.41 z m -42.668,-54.266 -0.4453,-2.601 c -0.6953,0.097 -1.2891,0 -1.7852,-0.297 -0.5937,-0.348 -0.9883,-0.821 -1.1875,-1.414 -0.3984,-0.942 -0.3711,-1.786 0.0742,-2.528 0.4961,-0.89 1.4102,-1.586 2.75,-2.082 1.4375,-0.644 2.625,-0.816 3.5664,-0.519 0.793,0.297 1.3907,0.867 1.7852,1.711 0.2969,0.593 0.3242,1.238 0.0742,1.929 -0.1992,0.598 -0.7187,1.192 -1.5586,1.786 l 1.7071,2.007 c 1.1406,-0.843 1.8593,-1.832 2.1562,-2.972 0.2969,-1.09 0.1992,-2.282 -0.2969,-3.571 -0.6953,-1.586 -1.7578,-2.675 -3.1953,-3.269 -1.539,-0.543 -3.2226,-0.445 -5.0547,0.297 -2.0312,0.843 -3.3711,1.984 -4.0156,3.422 -0.6445,1.484 -0.6445,3.07 0,4.757 0.5938,1.434 1.5117,2.454 2.75,3.047 0.7422,0.348 1.6367,0.446 2.6758,0.297 z m 10.1094,7.879 -10.3321,0.148 1.3399,2.528 7.2812,-0.445 -4.6797,5.425 1.2618,2.379 6.6171,-8.472 c 0.5938,-0.747 1.0899,-1.54 1.4883,-2.379 0.1953,-0.746 0.1211,-1.438 -0.2265,-2.082 -0.1954,-0.496 -0.5196,-1.016 -0.9649,-1.563 l -1.7109,0.895 0.5234,0.89 c 0.2969,0.496 0.3945,0.942 0.2969,1.336 -0.0508,0.301 -0.3477,0.746 -0.8945,1.34 z m 57.6833,76.938 1.266,-1.786 -3.121,-2.23 6.094,-8.77 -2.082,-1.488 -6.168,8.774 -3.122,-2.231 -1.191,1.781 z M 55.082,319.566 53,316.367 c 3.3203,-2.179 5.5273,-4.039 6.6172,-5.574 l 2.6758,4.09 z m -5.2031,-4.164 4.832,7.508 8.9961,-5.875 0.5938,0.969 4.1601,-2.676 -1.1875,-1.859 -2.3789,1.562 -4.3867,-6.84 2.3789,-1.562 -1.1875,-1.781 -4.164,2.675 0.5937,0.965 c -0.6914,1.09 -1.5586,2.082 -2.6016,2.973 -1.1367,0.941 -2.6484,2.008 -4.5351,3.199 z m 39.8438,46.235 c 1.289,1.043 2.5507,1.488 3.789,1.34 0.793,0 1.6367,-0.325 2.5313,-0.965 l -1.5625,-2.082 c -0.5469,0.394 -1.1172,0.593 -1.711,0.593 -0.6445,-0.097 -1.2148,-0.347 -1.7109,-0.742 -0.7422,-0.597 -1.1133,-1.34 -1.1133,-2.23 -0.0508,-0.895 0.4219,-1.957 1.4141,-3.196 1.039,-1.242 2.0039,-1.933 2.8984,-2.082 0.8906,-0.148 1.707,0.075 2.4531,0.668 0.543,0.446 0.8399,0.993 0.8907,1.637 0.1015,0.543 -0.0508,1.313 -0.4453,2.301 l 2.3789,1.043 c 0.6448,-1.289 0.8438,-2.504 0.5938,-3.645 -0.297,-1.136 -0.9649,-2.152 -2.0079,-3.047 -1.2891,-1.136 -2.7227,-1.585 -4.3086,-1.335 -1.5391,0.148 -3,1.015 -4.3867,2.601 -1.3399,1.684 -1.9844,3.32 -1.9336,4.906 0.1484,1.684 0.8945,3.098 2.2305,4.235 z m 35.0113,14.496 c -0.394,-0.098 -1.089,-0.422 -2.082,-0.965 l -1.855,-0.965 1.707,-3.051 3.644,2.082 c 0.247,0.25 0.418,0.547 0.52,0.891 0.051,0.301 0,0.695 -0.148,1.191 -0.297,0.395 -0.547,0.645 -0.747,0.743 -0.246,0.148 -0.593,0.175 -1.039,0.074 z m 1.114,3.57 c 0,-0.598 -0.196,-1.14 -0.594,-1.637 0.844,0.149 1.562,0.098 2.156,-0.148 0.645,-0.348 1.141,-0.816 1.488,-1.414 0.297,-0.543 0.446,-1.113 0.446,-1.707 0.047,-0.547 -0.051,-1.117 -0.297,-1.711 -0.297,-0.543 -0.719,-1.016 -1.266,-1.414 l -6.543,-3.715 -6.168,11.301 6.543,3.566 c 0.496,0.149 0.965,0.199 1.41,0.149 0.547,-0.098 1.016,-0.25 1.415,-0.446 0.347,-0.25 0.695,-0.621 1.039,-1.117 0.296,-0.644 0.421,-1.211 0.371,-1.707 z m -3.121,0.817 c -0.395,0.097 -0.766,0.074 -1.114,-0.075 l -3.269,-1.785 1.484,-2.601 3.047,1.785 c 0.297,0.148 0.547,0.445 0.742,0.89 0.051,0.348 0,0.719 -0.148,1.118 -0.246,0.296 -0.492,0.519 -0.742,0.668 z m 18.957,9.589 -6.321,-2.898 1.117,-2.602 5.872,2.676 0.89,-2.008 -5.871,-2.675 1.414,-3.196 6.539,2.973 0.895,-2.008 -8.922,-4.016 -5.203,11.821 8.695,3.867 z m 35.605,12.711 2.899,-12.636 -2.528,-0.594 -1.262,5.5 -4.98,-1.117 1.262,-5.5 -2.528,-0.594 -2.898,12.562 2.527,0.594 1.117,-4.906 4.981,1.117 -1.117,4.981 z m -18.582,-4.386 3.938,-12.34 -2.454,-0.817 -1.707,5.426 -4.832,-1.562 1.707,-5.426 -2.453,-0.817 -4.011,12.34 2.453,0.817 1.558,-4.832 4.907,1.562 -1.559,4.832 z m 43.039,7.136 0.891,-12.859 -2.602,-0.223 -0.89,12.934 z m -6.172,-9.515 c 0,0.547 -0.222,0.968 -0.668,1.265 -0.543,0.246 -1.289,0.348 -2.23,0.297 l -2.602,-0.222 0.223,-3.422 2.527,0.222 c 0.793,0 1.34,0.078 1.637,0.227 0.297,0.098 0.57,0.297 0.816,0.594 0.25,0.347 0.348,0.691 0.297,1.039 z m -5.722,3.496 3.492,0.297 c 1.14,0 1.933,-0.075 2.379,-0.223 0.746,-0.25 1.312,-0.672 1.711,-1.266 0.445,-0.543 0.718,-1.261 0.82,-2.156 0.098,-0.89 -0.078,-1.66 -0.524,-2.305 -0.347,-0.644 -0.816,-1.089 -1.41,-1.335 -0.644,-0.297 -1.461,-0.473 -2.453,-0.52 l -6.023,-0.371 -0.891,12.859 2.602,0.223 z m 22.968,-6.469 -2.601,0.074 0.222,12.934 2.379,-0.074 -0.148,-8.547 5.351,8.472 h 2.606 l -0.227,-13.007 -2.453,0.074 0.153,8.472 z m 4.313,16.133 1.187,-0.074 c -0.097,-0.797 -0.371,-1.414 -0.816,-1.86 -0.543,-0.496 -1.188,-0.695 -1.934,-0.597 -0.742,0 -1.386,0.226 -1.929,0.671 -0.496,0.497 -0.746,1.141 -0.746,1.93 l 1.191,-0.07 c 0,-0.348 0.125,-0.645 0.371,-0.895 0.348,-0.246 0.719,-0.371 1.113,-0.371 0.496,0 0.868,0.098 1.118,0.297 0.246,0.25 0.394,0.57 0.445,0.969 z M 377.77,134.547 c -0.989,-0.301 -1.707,-0.895 -2.157,-1.785 -0.441,-0.992 -0.492,-1.934 -0.148,-2.824 0.398,-0.993 1.242,-1.809 2.527,-2.454 1.391,-0.695 2.504,-0.894 3.348,-0.597 0.988,0.25 1.711,0.843 2.156,1.785 0.543,0.992 0.617,1.933 0.223,2.824 -0.399,0.942 -1.239,1.734 -2.528,2.379 -1.289,0.695 -2.429,0.918 -3.421,0.672 z m 4.535,1.781 c 1.191,-0.594 2.082,-1.262 2.675,-2.008 0.497,-0.691 0.844,-1.336 1.043,-1.929 0.196,-0.598 0.297,-1.266 0.297,-2.008 -0.101,-0.844 -0.371,-1.735 -0.816,-2.676 -0.895,-1.734 -2.109,-2.824 -3.645,-3.273 -1.535,-0.543 -3.246,-0.321 -5.129,0.671 -1.832,0.942 -3.023,2.204 -3.57,3.79 -0.543,1.488 -0.394,3.097 0.449,4.832 0.891,1.734 2.106,2.824 3.641,3.269 1.586,0.547 3.273,0.324 5.055,-0.668 z m 0.672,13.606 c -0.25,-0.696 -0.223,-1.34 0.074,-1.934 0.246,-0.645 0.793,-1.191 1.633,-1.637 l -1.559,-2.156 c -1.191,0.746 -1.984,1.66 -2.379,2.754 -0.348,1.039 -0.324,2.254 0.074,3.641 0.594,1.586 1.586,2.75 2.973,3.492 1.437,0.644 3.121,0.672 5.055,0.074 2.082,-0.691 3.492,-1.734 4.238,-3.121 0.793,-1.438 0.914,-3.024 0.371,-4.758 -0.547,-1.586 -1.391,-2.652 -2.527,-3.195 -0.594,-0.399 -1.489,-0.594 -2.676,-0.594 l 0.223,2.676 c 0.691,-0.102 1.289,0.047 1.781,0.445 0.496,0.297 0.871,0.793 1.117,1.488 0.297,0.942 0.199,1.782 -0.297,2.524 -0.398,0.746 -1.34,1.39 -2.824,1.933 -1.539,0.446 -2.727,0.52 -3.57,0.223 -0.84,-0.344 -1.411,-0.965 -1.707,-1.855 z m 19.546,33.152 -8.472,1.562 7.508,-6.691 -0.446,-2.527 -12.636,2.23 0.445,2.379 8.25,-1.488 -7.359,6.617 0.445,2.602 12.637,-2.231 z m 1.118,-0.969 c 0.543,0.348 1.214,0.496 2.007,0.449 l -0.222,-1.191 c -0.399,0.102 -0.723,0.023 -0.969,-0.223 -0.246,-0.199 -0.422,-0.543 -0.519,-1.039 -0.098,-0.547 -0.051,-0.918 0.148,-1.117 0.148,-0.297 0.422,-0.519 0.816,-0.668 l -0.222,-1.191 c -0.793,0.25 -1.364,0.644 -1.707,1.191 -0.348,0.645 -0.45,1.313 -0.297,2.008 0.144,0.742 0.469,1.336 0.965,1.781 z m -4.239,19.699 -0.445,-6.464 -2.156,0.148 0.445,6.469 -3.492,0.222 -0.52,-7.211 -2.156,0.149 0.668,9.812 12.785,-0.894 -0.593,-9.59 -2.231,0.148 0.52,6.989 z m -7.73,16.356 10.629,0.371 -0.149,3.793 2.231,0.074 0.297,-10.258 -2.157,-0.078 -0.148,3.793 -10.629,-0.371 z m -1.563,18.582 1.934,0.301 0.074,-1.043 c 0.051,-0.496 0.223,-0.891 0.52,-1.188 0.25,-0.25 0.746,-0.445 1.488,-0.597 l 8.473,6.023 0.449,-2.898 -6.246,-3.942 6.988,-1.558 0.371,-2.754 -10.258,2.972 c -1.14,0.297 -2.007,0.672 -2.601,1.118 -0.598,0.347 -0.965,0.941 -1.117,1.785 z m 11.524,11.226 -12.488,-3.121 -0.594,2.528 10.332,2.601 -1.192,4.907 -10.406,-2.602 -0.594,2.527 12.489,3.196 z m -54.192,97.75 c -0.89,-0.097 -1.906,-0.667 -3.046,-1.71 -1.192,-1.188 -1.809,-2.204 -1.86,-3.047 -0.047,-0.891 0.223,-1.684 0.82,-2.379 0.543,-0.543 1.114,-0.817 1.708,-0.817 0.695,-0.101 1.437,0.125 2.23,0.668 l 1.191,-2.379 c -1.191,-0.691 -2.379,-0.964 -3.57,-0.816 -1.09,0.148 -2.129,0.742 -3.121,1.785 -1.141,1.137 -1.684,2.551 -1.637,4.235 0.102,1.636 0.867,3.148 2.305,4.535 1.535,1.535 3.098,2.304 4.684,2.304 1.636,0 3.074,-0.644 4.312,-1.933 1.039,-1.039 1.609,-2.278 1.711,-3.715 0,-0.793 -0.273,-1.66 -0.82,-2.602 l -2.231,1.411 c 0.399,0.597 0.547,1.191 0.446,1.785 0,0.547 -0.247,1.113 -0.743,1.711 -0.644,0.644 -1.437,0.964 -2.379,0.964 z m -95.222,56.125 1.414,-7.21 4.012,5.945 2.675,-0.594 -6.465,-8.625 c -0.644,-0.84 -1.289,-1.512 -1.933,-2.004 -0.594,-0.449 -1.289,-0.57 -2.082,-0.375 -0.246,0.051 -0.817,0.223 -1.707,0.524 l 0.445,1.929 0.965,-0.297 c 0.645,-0.148 1.09,-0.121 1.34,0.075 0.344,0.199 0.691,0.593 1.039,1.191 l -2.527,10.109 z m 25.125,-7.21 -4.016,-12.34 -2.449,0.816 1.707,5.426 -4.832,1.562 -1.707,-5.351 -2.453,0.742 3.937,12.34 2.453,-0.817 -1.558,-4.832 4.832,-1.562 1.558,4.832 z m 10.554,-4.239 -3.492,-7.804 8.25,5.722 2.305,-1.113 -5.203,-11.82 -2.231,1.039 3.422,7.73 -8.179,-5.648 -2.379,1.117 5.281,11.816 z m 46.313,-38.652 c -0.594,0.344 -1.313,0.863 -2.156,1.559 l -1.336,1.117 -3.051,-3.719 -2.008,1.637 8.254,9.961 3.195,-2.676 c 1.141,-0.992 1.883,-1.711 2.231,-2.156 0.445,-0.696 0.644,-1.414 0.594,-2.157 0,-0.793 -0.348,-1.609 -1.039,-2.453 -0.547,-0.644 -1.067,-1.066 -1.563,-1.265 -0.594,-0.196 -1.164,-0.27 -1.711,-0.223 -0.445,0 -0.914,0.125 -1.41,0.375 z m -2.082,4.383 1.113,-0.965 c 0.992,-0.695 1.563,-1.067 1.711,-1.117 0.297,-0.149 0.645,-0.172 1.043,-0.075 0.297,0.102 0.57,0.297 0.817,0.598 0.296,0.344 0.445,0.742 0.445,1.188 0,0.347 -0.149,0.718 -0.445,1.113 l -2.305,2.082 z m -12.117,0.82 -8.028,5.648 7.36,10.555 7.804,-5.5 -1.261,-1.785 -5.653,4.016 -1.632,-2.305 5.277,-3.793 -1.266,-1.781 -5.277,3.789 -2.008,-2.899 5.875,-4.164 z m -11.742,15.016 c 0.097,-0.696 -0.051,-1.364 -0.45,-2.008 -0.199,-0.496 -0.593,-0.942 -1.187,-1.34 -0.496,-0.297 -1.016,-0.496 -1.563,-0.594 -0.445,-0.051 -1.062,0.051 -1.855,0.297 l -6.617,3.57 6.246,11.372 6.465,-3.79 c 0.394,-0.3 0.695,-0.671 0.89,-1.117 0.199,-0.347 0.297,-0.816 0.297,-1.41 0.102,-0.496 -0.023,-0.992 -0.371,-1.488 -0.348,-0.594 -0.742,-1.016 -1.187,-1.262 -0.497,-0.301 -1.067,-0.398 -1.711,-0.301 0.546,-0.543 0.89,-1.187 1.043,-1.929 z m -3.571,-1.414 c 0.399,0.148 0.696,0.421 0.891,0.816 0.148,0.297 0.226,0.621 0.226,0.969 -0.05,0.344 -0.199,0.668 -0.449,0.965 l -3.789,2.304 -1.637,-3.047 3.719,-2.007 c 0.395,-0.098 0.742,-0.098 1.039,0 z m 2.602,7.656 -3.196,1.859 -1.488,-2.601 3.199,-1.711 c 0.446,-0.199 0.817,-0.223 1.114,-0.074 0.297,0.05 0.57,0.273 0.816,0.667 0.199,0.348 0.274,0.696 0.223,1.043 -0.098,0.348 -0.321,0.618 -0.668,0.817 z m 70.918,-96.488 9.883,4.015 -1.411,3.571 2.008,0.816 3.789,-9.516 -2.008,-0.89 -1.41,3.566 -9.886,-4.016 z m -0.672,19.328 3.051,-5.723 -1.934,-1.039 -3.051,5.723 -3.047,-1.637 3.348,-6.395 -1.859,-1.039 -4.61,8.7 11.301,6.093 4.531,-8.472 -1.929,-1.043 -3.274,6.172 z m -7.953,18.808 1.785,1.188 5.574,-8.621 -1.859,-1.192 -2.004,3.274 -8.996,-5.875 -1.414,2.156 8.996,5.875 z m -4.461,9.887 1.637,-2.008 -9.961,-8.176 -1.563,1.93 6.543,5.277 -9.812,-1.187 -1.637,2.008 10.039,8.176 1.484,-1.934 -6.617,-5.426 9.887,1.34"
         style="fill:#322f30;fill-opacity:1;fill-rule:evenodd;stroke:none"
         id="path12" />
      <path
         d="m 285.52,35.9766 c 0.199,0.0976 0.398,0.3476 0.597,0.7422 0.098,0.3984 0.074,0.7695 -0.078,1.1171 -0.144,0.3946 -0.394,0.6914 -0.742,0.8907 -0.348,0.1484 -0.668,0.1992 -0.965,0.1484 -0.445,-0.0977 -1.113,-0.3477 -2.008,-0.7422 l -1.781,-0.668 1.262,-3.0507 z m -7.727,8.3984 2.004,-5.0547 0.445,0.2227 c 0.746,0.25 1.242,0.5976 1.488,1.0429 0.297,0.3946 0.543,1.2852 0.743,2.6758 l 0.746,3.3438 2.82,1.1172 L 285,42.2969 c -0.246,-0.5977 -0.543,-1.0938 -0.891,-1.4883 1.188,0.2461 2.129,0.1719 2.825,-0.2227 0.793,-0.3984 1.339,-1.0156 1.636,-1.8593 0.297,-0.7422 0.371,-1.461 0.223,-2.1563 -0.148,-0.793 -0.473,-1.3633 -0.969,-1.7109 -0.445,-0.3946 -1.312,-0.8672 -2.601,-1.4102 l -5.055,-2.082 -4.828,12.043 z m 22.969,10.8555 6.093,-11.375 -2.156,-1.1875 -4.011,7.6562 -0.598,-10.1094 -2.305,-1.1914 -6.019,11.375 2.156,1.1875 3.937,-7.5078 0.672,9.961 z m 54.558,27.875 -9.437,8.8437 -9.738,-10.5547 -2.082,1.9336 -1.415,-1.5625 3.571,-3.4179 0.816,0.8164 7.805,-7.3594 1.785,1.9336 -7.805,7.3594 2.602,2.8242 7.805,-7.3594 1.785,1.9336 -7.809,7.3594 2.527,2.6758 7.809,-7.2852 z m -25.941,-7.6563 8.101,-10.0351 -7.359,-6.0235 -1.41,1.711 5.426,4.3867 -1.785,2.2305 -5.055,-4.0899 -1.336,1.7109 4.98,4.086 -2.156,2.75 -5.574,-4.6055 -1.414,1.707 z m -15.609,-11.9687 3.046,-4.6836 -4.238,-2.8242 -3.047,4.7578 -2.23,-1.4141 7.062,-10.8516 2.157,1.4141 -2.75,4.2344 4.238,2.8242 2.75,-4.3086 2.226,1.4844 -7.058,10.8555 z m 41.031,35.6797 c -0.149,-0.3477 -0.199,-0.6914 -0.149,-1.0391 0.051,-0.3477 0.25,-0.6445 0.594,-0.8945 0.547,-0.3946 1.02,-0.4922 1.414,-0.2969 0.496,0.1484 1.067,0.6211 1.707,1.4141 l 1.563,2.0822 -2.676,2.152 z m 6.84,0 -2.082,-2.8243 c -0.543,-0.6914 -1.141,-1.2382 -1.786,-1.6367 -0.543,-0.3437 -1.21,-0.5195 -2.003,-0.5195 -0.793,0.1016 -1.512,0.3984 -2.157,0.8945 -0.644,0.4922 -1.09,1.1406 -1.34,1.9297 -0.199,0.6953 -0.222,1.3633 -0.074,2.0078 0.102,0.4453 0.52,1.1643 1.266,2.1563 l 3.715,4.832 10.109,-8.0273 -5.871,-7.5821 -1.711,1.336 4.313,5.5781 z m 4.238,13.9768 c 0.297,-0.992 1.062,-1.883 2.305,-2.676 1.285,-0.746 2.402,-1.043 3.343,-0.895 0.942,0.149 1.707,0.672 2.305,1.563 0.496,0.941 0.645,1.883 0.445,2.824 -0.297,0.992 -1.066,1.86 -2.304,2.602 -1.239,0.793 -2.356,1.09 -3.344,0.894 -0.992,-0.148 -1.762,-0.672 -2.305,-1.562 -0.547,-0.793 -0.695,-1.711 -0.445,-2.75 z m 10.851,-0.52 c -0.148,-0.941 -0.496,-1.808 -1.039,-2.601 -0.941,-1.586 -2.23,-2.578 -3.867,-2.973 -1.636,-0.301 -3.32,0.098 -5.054,1.187 -1.735,1.09 -2.825,2.426 -3.27,4.012 -0.348,1.586 -0.051,3.199 0.891,4.832 1.039,1.637 2.351,2.629 3.941,2.977 1.633,0.297 3.293,-0.102 4.981,-1.192 1.136,-0.691 1.957,-1.437 2.453,-2.23 0.445,-0.594 0.742,-1.238 0.89,-1.934 0.149,-0.84 0.172,-1.535 0.074,-2.078 z M 55.5273,125.18 44.082,119.305 l -1.9336,3.793 c -0.7421,1.586 -1.1406,2.527 -1.1914,2.824 -0.1953,0.644 -0.1211,1.387 0.2266,2.23 0.3437,0.743 0.9883,1.336 1.9297,1.786 0.7461,0.394 1.3867,0.57 1.9336,0.519 0.7422,0 1.289,-0.125 1.6367,-0.371 0.4961,-0.199 0.8906,-0.496 1.1875,-0.895 l 2.1562,-3.863 4.3125,2.231 z m -8.1015,0.445 c -0.4453,0.941 -0.8164,1.512 -1.1133,1.711 -0.2969,0.246 -0.6211,0.394 -0.9687,0.445 -0.3477,0.098 -0.668,0.024 -0.9649,-0.222 -0.3984,-0.149 -0.6953,-0.45 -0.8945,-0.895 -0.1485,-0.348 -0.1485,-0.742 0,-1.187 0.1015,-0.446 0.3476,-1.016 0.7461,-1.711 l 0.5937,-1.114 3.2696,1.633 z m 61.9222,-60.7344 -6.246,-8.6953 3.046,-2.2305 -1.261,-1.7851 -8.2503,6.0234 1.2617,1.7852 3.0466,-2.2305 6.321,8.6953 z m -26.1683,4.461 7.2109,-6.2422 8.4024,9.7383 -7.3594,6.4648 -1.4141,-1.6328 5.4258,-4.7578 -2.3047,-2.6758 -4.9062,4.2344 -1.4102,-1.6328 4.9063,-4.2383 -1.8594,-2.1563 -5.2773,4.5352 z m -6.5391,9.5898 2.6758,2.4531 -0.9687,1.043 c -0.7422,0.8398 -1.2618,1.3125 -1.5586,1.4102 -0.3477,0.1484 -0.668,0.1992 -0.9688,0.1484 -0.3437,-0.0508 -0.668,-0.1953 -0.9648,-0.4453 -0.3477,-0.4453 -0.5196,-0.8164 -0.5196,-1.1133 -0.0507,-0.4492 0.0469,-0.8437 0.2969,-1.1914 0.2969,-0.4453 0.6914,-0.918 1.1875,-1.4102 z m 1.1875,7.0625 c 0.4453,-0.2969 1.0899,-0.918 1.9336,-1.8594 l 1.1914,-1.2617 3.4922,3.3438 1.7852,-1.9336 -9.3672,-8.7696 -2.8242,3.0469 c -1.1914,1.2383 -1.8594,2.0313 -2.0078,2.3789 -0.3477,0.6446 -0.4454,1.3867 -0.2969,2.2305 0.0469,0.7422 0.4687,1.5117 1.2617,2.3047 0.6445,0.5429 1.2383,0.8906 1.7852,1.039 0.5429,0.1485 1.0898,0.1758 1.6367,0.0743 0.6914,-0.1993 1.164,-0.3946 1.4101,-0.5938 z M 65.043,103.027 c 0.6445,0.496 1.3867,0.793 2.2304,0.891 0.793,0 1.4375,-0.148 1.9336,-0.445 0.543,-0.297 1.1407,-0.895 1.7813,-1.785 l 3.7187,-4.7583 -10.1093,-7.9531 -5.9454,7.582 1.7071,1.3398 4.3125,-5.5781 2.3789,1.8594 -2.1563,2.75 c -0.5468,0.6953 -0.9414,1.4141 -1.1875,2.1562 -0.25,0.5938 -0.25,1.2891 0,2.0821 0.1953,0.695 0.6407,1.312 1.336,1.859 z m 1.0429,-3.4215 c 0.0977,-0.5938 0.4454,-1.2617 1.0391,-2.0039 l 1.6367,-2.0821 2.6758,2.0821 -2.6758,3.3434 c -0.3984,0.2 -0.7187,0.297 -0.9687,0.297 -0.4453,0 -0.793,-0.125 -1.0391,-0.371 -0.4453,-0.25 -0.668,-0.668 -0.668,-1.2655 z m -4.7578,14.7185 c -0.7461,0.149 -1.6875,0.149 -2.8281,0 l -10.6289,-1.558 1.4883,-2.305 6.9883,1.41 -4.0899,-6.168 1.5625,-2.453 5.3516,8.992 c 0.7929,0.153 1.3125,0.176 1.5586,0.074 0.3476,-0.097 0.6718,-0.394 0.9687,-0.89 l 0.5196,-0.891 1.6367,1.039 -0.8203,1.563 c -0.4961,0.691 -1.0664,1.09 -1.7071,1.187 z m 61.3989,-60.5076 -6.168,3.5703 1.039,1.9297 8.472,-4.9062 -6.39,-11.2227 -8.25,4.7578 1.039,1.9336 6.023,-3.4961 1.41,2.4531 -5.574,3.2696 1.039,1.8593 5.649,-3.1953 z m 19.328,-7.5078 -5.426,-11.6719 -9.293,4.3125 5.426,11.7461 2.379,-1.1172 -4.536,-9.7383 4.536,-2.1523 4.535,9.7383 z m -105.0355,92.8434 10.0352,3.868 0.8906,-2.454 -11.9687,-4.609 -3.1211,8.176 2.0078,0.746 z m -8.4726,21.485 c 0.3945,0.793 1.0625,1.437 2.0039,1.933 l 1.2656,-2.304 c -0.5469,-0.297 -0.9922,-0.746 -1.3398,-1.34 -0.1993,-0.543 -0.2227,-1.164 -0.0743,-1.86 0.25,-0.988 0.7696,-1.66 1.5625,-2.003 0.8438,-0.45 2.0079,-0.45 3.4922,0 1.586,0.445 2.6289,1.015 3.125,1.707 0.4922,0.746 0.6172,1.585 0.3711,2.527 -0.1484,0.644 -0.5234,1.164 -1.1172,1.562 -0.4961,0.348 -1.2382,0.52 -2.2304,0.52 l 0.0742,2.601 c 1.4375,0 2.6289,-0.343 3.5703,-1.039 0.8398,-0.644 1.4609,-1.66 1.8555,-3.046 0.4492,-1.637 0.25,-3.149 -0.5938,-4.536 -0.8437,-1.339 -2.2539,-2.304 -4.2344,-2.898 -2.082,-0.547 -3.8164,-0.422 -5.207,0.371 -1.4375,0.742 -2.3789,1.981 -2.8242,3.715 -0.4453,1.488 -0.3438,2.851 0.3008,4.09 z m 4.1601,18.359 3.1953,2.379 0.5235,-3.047 -3.793,-2.676 -1.039,-1.039 c -0.1016,-0.347 -0.125,-0.695 -0.0743,-1.043 l 5.5743,1.043 0.4453,-2.601 -12.6368,-2.231 -0.4453,2.528 5.3516,0.964 c -0.1484,0.594 -0.3711,0.965 -0.668,1.114 -0.25,0.148 -0.9414,0.347 -2.082,0.597 -1.5352,0.297 -2.4805,0.668 -2.8242,1.114 -0.3985,0.496 -0.7188,1.34 -0.9688,2.527 l -0.0742,0.371 1.8594,0.301 0.0742,-0.375 c 0.0508,-0.496 0.1719,-0.867 0.3711,-1.113 0.25,-0.25 0.4961,-0.399 0.7422,-0.45 0.1992,-0.097 0.7695,-0.222 1.7109,-0.371 l 1.1914,-0.371 c 0.2969,-0.047 0.6446,-0.32 1.0391,-0.816 0,0.547 0.2226,1.09 0.668,1.637 0.4961,0.492 1.1171,1.015 1.8593,1.558 z m 1.043,16.727 -8.3281,-1.039 8.9961,-4.164 0.2968,-2.602 -12.7851,-1.563 -0.2969,2.379 8.5469,1.039 -9.1445,4.165 -0.2969,2.601 12.7109,1.563 z m -13.457,12.34 8.5508,0.148 -8.625,5.055 -0.0743,2.601 12.8594,0.223 v -2.453 l -8.3242,-0.149 8.4726,-5.054 v -2.602 L 20.293,205.609 Z m -0.7422,2.675 c 0.0976,-0.742 -0.0977,-1.386 -0.5938,-1.933 -0.3476,-0.395 -0.9687,-0.692 -1.8593,-0.891 l -0.0743,1.262 c 0.4454,0 0.7696,0.148 0.9649,0.445 0.1992,0.199 0.2969,0.57 0.2969,1.117 0,0.348 -0.0977,0.719 -0.2969,1.114 -0.2461,0.25 -0.5703,0.375 -0.9649,0.375 l -0.0742,1.187 c 0.793,0 1.4375,-0.246 1.9336,-0.742 0.4453,-0.547 0.668,-1.192 0.668,-1.934 z m 16.2031,33.078 -12.6367,2.528 1.7109,8.551 2.0821,-0.372 -1.1172,-6.023 10.4843,-2.082 z m 0.3711,28.176 c 1.9844,-0.496 3.3984,-1.488 4.2383,-2.976 0.8437,-1.438 0.9922,-3.047 0.4453,-4.832 -0.5938,-1.883 -1.5859,-3.196 -2.9727,-3.938 -1.4843,-0.793 -3.1953,-0.891 -5.1289,-0.297 -1.3359,0.395 -2.3281,0.891 -2.9726,1.485 -0.4453,0.398 -0.8906,0.941 -1.3399,1.636 -0.3945,0.696 -0.6172,1.336 -0.6679,1.934 -0.0977,0.742 0,1.684 0.2968,2.824 0.4961,1.785 1.4649,3.098 2.8985,3.938 1.4883,0.746 3.2226,0.82 5.2031,0.226 z m -4.2344,-2.601 c -0.8945,-0.348 -1.4883,-1.067 -1.7851,-2.157 -0.2969,-0.992 -0.1719,-1.933 0.3711,-2.828 0.4961,-0.789 1.4609,-1.41 2.8984,-1.855 1.4883,-0.399 2.6523,-0.371 3.4961,0.074 0.8906,0.445 1.4844,1.164 1.7852,2.156 0.2968,0.989 0.1718,1.907 -0.375,2.75 -0.4961,0.793 -1.4844,1.438 -2.9727,1.934 -1.4375,0.394 -2.5781,0.371 -3.418,-0.074 z m 38.5039,61.398 -4.832,1.637 2.6758,-4.387 z m -6.2422,4.684 13.2305,-4.164 -1.7851,-2.231 -2.9727,1.043 -3.2695,-4.09 1.6328,-2.676 -1.707,-2.156 -6.8399,12.117 z m 15.1641,12.34 c -0.4961,0 -0.8672,-0.125 -1.1172,-0.372 -0.1953,-0.101 -0.6679,-0.519 -1.4101,-1.265 l -0.8164,-0.891 2.6015,-2.601 0.9649,1.039 c 0.7422,0.746 1.1875,1.289 1.3359,1.636 0.1016,0.446 0.125,0.793 0.0781,1.039 -0.1015,0.399 -0.2734,0.696 -0.5234,0.895 -0.2969,0.348 -0.668,0.52 -1.1133,0.52 z m 3.7149,-3.344 c -0.1954,-0.399 -0.7657,-1.09 -1.7071,-2.082 l -1.1914,-1.192 3.4961,-3.418 -1.7851,-1.859 -9.293,8.996 2.8984,2.973 c 1.043,1.09 1.8086,1.808 2.3047,2.156 0.6953,0.348 1.4375,0.496 2.2305,0.445 0.7422,-0.097 1.5117,-0.496 2.3047,-1.187 0.5468,-0.645 0.9179,-1.215 1.1132,-1.711 0.1524,-0.645 0.1993,-1.215 0.1524,-1.711 -0.1016,-0.543 -0.2734,-1.016 -0.5234,-1.41 z m -42.668,-54.266 -0.4453,-2.601 c -0.6953,0.097 -1.2891,0 -1.7852,-0.297 -0.5937,-0.348 -0.9883,-0.821 -1.1875,-1.414 -0.3984,-0.942 -0.3711,-1.786 0.0742,-2.528 0.4961,-0.89 1.4102,-1.586 2.75,-2.082 1.4375,-0.644 2.625,-0.816 3.5664,-0.519 0.793,0.297 1.3907,0.867 1.7852,1.711 0.2969,0.593 0.3242,1.238 0.0742,1.929 -0.1992,0.598 -0.7187,1.192 -1.5586,1.786 l 1.7071,2.007 c 1.1406,-0.843 1.8593,-1.832 2.1562,-2.972 0.2969,-1.09 0.1992,-2.282 -0.2969,-3.571 -0.6953,-1.586 -1.7578,-2.675 -3.1953,-3.269 -1.539,-0.543 -3.2226,-0.445 -5.0547,0.297 -2.0312,0.843 -3.3711,1.984 -4.0156,3.422 -0.6445,1.484 -0.6445,3.07 0,4.757 0.5938,1.434 1.5117,2.454 2.75,3.047 0.7422,0.348 1.6367,0.446 2.6758,0.297 z m 10.1094,7.879 -10.3321,0.148 1.3399,2.528 7.2812,-0.445 -4.6797,5.425 1.2618,2.379 6.6171,-8.472 c 0.5938,-0.747 1.0899,-1.54 1.4883,-2.379 0.1953,-0.746 0.1211,-1.438 -0.2265,-2.082 -0.1954,-0.496 -0.5196,-1.016 -0.9649,-1.563 l -1.7109,0.895 0.5234,0.89 c 0.2969,0.496 0.3945,0.942 0.2969,1.336 -0.0508,0.301 -0.3477,0.746 -0.8945,1.34 z m -0.5938,17.32 1.1133,-0.742 c 1.8867,-1.191 3.3984,-2.258 4.5351,-3.199 1.043,-0.891 1.9102,-1.883 2.6016,-2.973 l -0.5937,-0.965 4.164,-2.675 1.1875,1.781 -2.3789,1.562 4.3867,6.84 2.3789,-1.562 1.1875,1.859 -4.1601,2.676 -0.5938,-0.969 -8.9961,5.875 z m 5.2031,4.164 7.211,-4.683 -2.6758,-4.09 c -1.0899,1.535 -3.2969,3.395 -6.6172,5.574 z m 53.074,55.454 -8.324,-5.95 1.191,-1.781 3.122,2.231 6.168,-8.774 2.082,1.488 -6.094,8.77 3.121,2.23 z M 89.7227,361.637 c 1.289,1.043 2.5507,1.488 3.789,1.34 0.793,0 1.6367,-0.325 2.5313,-0.965 l -1.5625,-2.082 c -0.5469,0.394 -1.1172,0.593 -1.711,0.593 -0.6445,-0.097 -1.2148,-0.347 -1.7109,-0.742 -0.7422,-0.597 -1.1133,-1.34 -1.1133,-2.23 -0.0508,-0.895 0.4219,-1.957 1.4141,-3.196 1.039,-1.242 2.0039,-1.933 2.8984,-2.082 0.8906,-0.148 1.707,0.075 2.4531,0.668 0.543,0.446 0.8399,0.993 0.8907,1.637 0.1015,0.543 -0.0508,1.313 -0.4453,2.301 l 2.3789,1.043 c 0.6448,-1.289 0.8438,-2.504 0.5938,-3.645 -0.297,-1.136 -0.9649,-2.152 -2.0079,-3.047 -1.2891,-1.136 -2.7227,-1.585 -4.3086,-1.335 -1.5391,0.148 -3,1.015 -4.3867,2.601 -1.3399,1.684 -1.9844,3.32 -1.9336,4.906 0.1484,1.684 0.8945,3.098 2.2305,4.235 z m 35.0113,14.496 c -0.394,-0.098 -1.089,-0.422 -2.082,-0.965 l -1.855,-0.965 1.707,-3.051 3.644,2.082 c 0.247,0.25 0.418,0.547 0.52,0.891 0.051,0.301 0,0.695 -0.148,1.191 -0.297,0.395 -0.547,0.645 -0.747,0.743 -0.246,0.148 -0.593,0.175 -1.039,0.074 z m 1.114,3.57 c 0,-0.598 -0.196,-1.14 -0.594,-1.637 0.844,0.149 1.562,0.098 2.156,-0.148 0.645,-0.348 1.141,-0.816 1.488,-1.414 0.297,-0.543 0.446,-1.113 0.446,-1.707 0.047,-0.547 -0.051,-1.117 -0.297,-1.711 -0.297,-0.543 -0.719,-1.016 -1.266,-1.414 l -6.543,-3.715 -6.168,11.301 6.543,3.566 c 0.496,0.149 0.965,0.199 1.41,0.149 0.547,-0.098 1.016,-0.25 1.415,-0.446 0.347,-0.25 0.695,-0.621 1.039,-1.117 0.296,-0.644 0.421,-1.211 0.371,-1.707 z m -3.121,0.817 c -0.395,0.097 -0.766,0.074 -1.114,-0.075 l -3.269,-1.785 1.484,-2.601 3.047,1.785 c 0.297,0.148 0.547,0.445 0.742,0.89 0.051,0.348 0,0.719 -0.148,1.118 -0.246,0.296 -0.492,0.519 -0.742,0.668 z m 18.957,9.589 -6.321,-2.898 1.117,-2.602 5.872,2.676 0.89,-2.008 -5.871,-2.675 1.414,-3.196 6.539,2.973 0.895,-2.008 -8.922,-4.016 -5.203,11.821 8.695,3.867 z m 35.605,12.711 2.899,-12.636 -2.528,-0.594 -1.262,5.5 -4.98,-1.117 1.262,-5.5 -2.528,-0.594 -2.898,12.562 2.527,0.594 1.117,-4.906 4.981,1.117 -1.117,4.981 z m -18.582,-4.386 3.938,-12.34 -2.454,-0.817 -1.707,5.426 -4.832,-1.562 1.707,-5.426 -2.453,-0.817 -4.011,12.34 2.453,0.817 1.558,-4.832 4.907,1.562 -1.559,4.832 z m 43.039,7.136 0.891,-12.859 -2.602,-0.223 -0.89,12.934 z m -6.172,-9.515 c 0,0.547 -0.222,0.968 -0.668,1.265 -0.543,0.246 -1.289,0.348 -2.23,0.297 l -2.602,-0.222 0.223,-3.422 2.527,0.222 c 0.793,0 1.34,0.078 1.637,0.227 0.297,0.098 0.57,0.297 0.816,0.594 0.25,0.347 0.348,0.691 0.297,1.039 z m -5.722,3.496 3.492,0.297 c 1.14,0 1.933,-0.075 2.379,-0.223 0.746,-0.25 1.312,-0.672 1.711,-1.266 0.445,-0.543 0.718,-1.261 0.82,-2.156 0.098,-0.89 -0.078,-1.66 -0.524,-2.305 -0.347,-0.644 -0.816,-1.089 -1.41,-1.335 -0.644,-0.297 -1.461,-0.473 -2.453,-0.52 l -6.023,-0.371 -0.891,12.859 2.602,0.223 z m 22.968,-6.469 -2.601,0.074 0.222,12.934 2.379,-0.074 -0.148,-8.547 5.351,8.472 h 2.606 l -0.227,-13.007 -2.453,0.074 0.153,8.472 z m 4.313,16.133 1.187,-0.074 c -0.097,-0.797 -0.371,-1.414 -0.816,-1.86 -0.543,-0.496 -1.188,-0.695 -1.934,-0.597 -0.742,0 -1.386,0.226 -1.929,0.671 -0.496,0.497 -0.746,1.141 -0.746,1.93 l 1.191,-0.07 c 0,-0.348 0.125,-0.645 0.371,-0.895 0.348,-0.246 0.719,-0.371 1.113,-0.371 0.496,0 0.868,0.098 1.118,0.297 0.246,0.25 0.394,0.57 0.445,0.969 z M 377.77,134.547 c -0.989,-0.301 -1.707,-0.895 -2.157,-1.785 -0.441,-0.992 -0.492,-1.934 -0.148,-2.824 0.398,-0.993 1.242,-1.809 2.527,-2.454 1.391,-0.695 2.504,-0.894 3.348,-0.597 0.988,0.25 1.711,0.843 2.156,1.785 0.543,0.992 0.617,1.933 0.223,2.824 -0.399,0.942 -1.239,1.734 -2.528,2.379 -1.289,0.695 -2.429,0.918 -3.421,0.672 z m 4.535,1.781 c 1.191,-0.594 2.082,-1.262 2.675,-2.008 0.497,-0.691 0.844,-1.336 1.043,-1.929 0.196,-0.598 0.297,-1.266 0.297,-2.008 -0.101,-0.844 -0.371,-1.735 -0.816,-2.676 -0.895,-1.734 -2.109,-2.824 -3.645,-3.273 -1.535,-0.543 -3.246,-0.321 -5.129,0.671 -1.832,0.942 -3.023,2.204 -3.57,3.79 -0.543,1.488 -0.394,3.097 0.449,4.832 0.891,1.734 2.106,2.824 3.641,3.269 1.586,0.547 3.273,0.324 5.055,-0.668 z m 0.672,13.606 c -0.25,-0.696 -0.223,-1.34 0.074,-1.934 0.246,-0.645 0.793,-1.191 1.633,-1.637 l -1.559,-2.156 c -1.191,0.746 -1.984,1.66 -2.379,2.754 -0.348,1.039 -0.324,2.254 0.074,3.641 0.594,1.586 1.586,2.75 2.973,3.492 1.437,0.644 3.121,0.672 5.055,0.074 2.082,-0.691 3.492,-1.734 4.238,-3.121 0.793,-1.438 0.914,-3.024 0.371,-4.758 -0.547,-1.586 -1.391,-2.652 -2.527,-3.195 -0.594,-0.399 -1.489,-0.594 -2.676,-0.594 l 0.223,2.676 c 0.691,-0.102 1.289,0.047 1.781,0.445 0.496,0.297 0.871,0.793 1.117,1.488 0.297,0.942 0.199,1.782 -0.297,2.524 -0.398,0.746 -1.34,1.39 -2.824,1.933 -1.539,0.446 -2.727,0.52 -3.57,0.223 -0.84,-0.344 -1.411,-0.965 -1.707,-1.855 z m 19.546,33.152 -8.472,1.562 7.508,-6.691 -0.446,-2.527 -12.636,2.23 0.445,2.379 8.25,-1.488 -7.359,6.617 0.445,2.602 12.637,-2.231 z m 1.118,-0.969 c -0.496,-0.445 -0.821,-1.039 -0.965,-1.781 -0.153,-0.695 -0.051,-1.363 0.297,-2.008 0.343,-0.547 0.914,-0.941 1.707,-1.191 l 0.222,1.191 c -0.394,0.149 -0.668,0.371 -0.816,0.668 -0.199,0.199 -0.246,0.57 -0.148,1.117 0.097,0.496 0.273,0.84 0.519,1.039 0.246,0.246 0.57,0.325 0.969,0.223 l 0.222,1.191 c -0.793,0.047 -1.464,-0.101 -2.007,-0.449 z m -4.239,19.699 -0.445,-6.464 -2.156,0.148 0.445,6.469 -3.492,0.222 -0.52,-7.211 -2.156,0.149 0.668,9.812 12.785,-0.894 -0.593,-9.59 -2.231,0.148 0.52,6.989 z m -7.73,16.356 10.629,0.371 -0.149,3.793 2.231,0.074 0.297,-10.258 -2.157,-0.078 -0.148,3.793 -10.629,-0.371 z m -1.563,18.582 1.934,0.301 0.074,-1.043 c 0.051,-0.496 0.223,-0.891 0.52,-1.188 0.25,-0.25 0.746,-0.445 1.488,-0.597 l 8.473,6.023 0.449,-2.898 -6.246,-3.942 6.988,-1.558 0.371,-2.754 -10.258,2.972 c -1.14,0.297 -2.007,0.672 -2.601,1.118 -0.598,0.347 -0.965,0.941 -1.117,1.785 z m 11.524,11.226 -12.488,-3.121 -0.594,2.528 10.332,2.601 -1.192,4.907 -10.406,-2.602 -0.594,2.527 12.489,3.196 z m -54.192,97.75 c -0.89,-0.097 -1.906,-0.667 -3.046,-1.71 -1.192,-1.188 -1.809,-2.204 -1.86,-3.047 -0.047,-0.891 0.223,-1.684 0.82,-2.379 0.543,-0.543 1.114,-0.817 1.708,-0.817 0.695,-0.101 1.437,0.125 2.23,0.668 l 1.191,-2.379 c -1.191,-0.691 -2.379,-0.964 -3.57,-0.816 -1.09,0.148 -2.129,0.742 -3.121,1.785 -1.141,1.137 -1.684,2.551 -1.637,4.235 0.102,1.636 0.867,3.148 2.305,4.535 1.535,1.535 3.098,2.304 4.684,2.304 1.636,0 3.074,-0.644 4.312,-1.933 1.039,-1.039 1.609,-2.278 1.711,-3.715 0,-0.793 -0.273,-1.66 -0.82,-2.602 l -2.231,1.411 c 0.399,0.597 0.547,1.191 0.446,1.785 0,0.547 -0.247,1.113 -0.743,1.711 -0.644,0.644 -1.437,0.964 -2.379,0.964 z m -95.222,56.125 1.414,-7.21 4.012,5.945 2.675,-0.594 -6.465,-8.625 c -0.644,-0.84 -1.289,-1.512 -1.933,-2.004 -0.594,-0.449 -1.289,-0.57 -2.082,-0.375 -0.246,0.051 -0.817,0.223 -1.707,0.524 l 0.445,1.929 0.965,-0.297 c 0.645,-0.148 1.09,-0.121 1.34,0.075 0.344,0.199 0.691,0.593 1.039,1.191 l -2.527,10.109 z m 25.125,-7.21 -4.016,-12.34 -2.449,0.816 1.707,5.426 -4.832,1.562 -1.707,-5.351 -2.453,0.742 3.937,12.34 2.453,-0.817 -1.558,-4.832 4.832,-1.562 1.558,4.832 z m 10.554,-4.239 -3.492,-7.804 8.25,5.722 2.305,-1.113 -5.203,-11.82 -2.231,1.039 3.422,7.73 -8.179,-5.648 -2.379,1.117 5.281,11.816 z m 44.231,-34.269 2.379,2.824 2.305,-2.082 c 0.296,-0.395 0.445,-0.766 0.445,-1.113 0,-0.446 -0.149,-0.844 -0.445,-1.188 -0.247,-0.301 -0.52,-0.496 -0.817,-0.598 -0.398,-0.097 -0.746,-0.074 -1.043,0.075 -0.148,0.05 -0.719,0.422 -1.711,1.117 z m 2.082,-4.383 c 0.496,-0.25 0.965,-0.375 1.41,-0.375 0.547,-0.047 1.117,0.027 1.711,0.223 0.496,0.199 1.016,0.621 1.563,1.265 0.691,0.844 1.039,1.66 1.039,2.453 0.05,0.743 -0.149,1.461 -0.594,2.157 -0.348,0.445 -1.09,1.164 -2.231,2.156 l -3.195,2.676 -8.254,-9.961 2.008,-1.637 3.051,3.719 1.336,-1.117 c 0.843,-0.696 1.562,-1.215 2.156,-1.559 z m -14.199,5.203 -8.028,5.648 7.36,10.555 7.804,-5.5 -1.261,-1.785 -5.653,4.016 -1.632,-2.305 5.277,-3.793 -1.266,-1.781 -5.277,3.789 -2.008,-2.899 5.875,-4.164 z m -11.742,15.016 c 0.097,-0.696 -0.051,-1.364 -0.45,-2.008 -0.199,-0.496 -0.593,-0.942 -1.187,-1.34 -0.496,-0.297 -1.016,-0.496 -1.563,-0.594 -0.445,-0.051 -1.062,0.051 -1.855,0.297 l -6.617,3.57 6.246,11.372 6.465,-3.79 c 0.394,-0.3 0.695,-0.671 0.89,-1.117 0.199,-0.347 0.297,-0.816 0.297,-1.41 0.102,-0.496 -0.023,-0.992 -0.371,-1.488 -0.348,-0.594 -0.742,-1.016 -1.187,-1.262 -0.497,-0.301 -1.067,-0.398 -1.711,-0.301 0.546,-0.543 0.89,-1.187 1.043,-1.929 z m -3.571,-1.414 c 0.399,0.148 0.696,0.421 0.891,0.816 0.148,0.297 0.226,0.621 0.226,0.969 -0.05,0.344 -0.199,0.668 -0.449,0.965 l -3.789,2.304 -1.637,-3.047 3.719,-2.007 c 0.395,-0.098 0.742,-0.098 1.039,0 z m 2.602,7.656 -3.196,1.859 -1.488,-2.601 3.199,-1.711 c 0.446,-0.199 0.817,-0.223 1.114,-0.074 0.297,0.05 0.57,0.273 0.816,0.667 0.199,0.348 0.274,0.696 0.223,1.043 -0.098,0.348 -0.321,0.618 -0.668,0.817 z m 70.918,-96.488 9.883,4.015 -1.411,3.571 2.008,0.816 3.789,-9.516 -2.008,-0.89 -1.41,3.566 -9.886,-4.016 z m -0.672,19.328 3.051,-5.723 -1.934,-1.039 -3.051,5.723 -3.047,-1.637 3.348,-6.395 -1.859,-1.039 -4.61,8.7 11.301,6.093 4.531,-8.472 -1.929,-1.043 -3.274,6.172 z m -7.953,18.808 1.785,1.188 5.574,-8.621 -1.859,-1.192 -2.004,3.274 -8.996,-5.875 -1.414,2.156 8.996,5.875 z m -4.461,9.887 -9.887,-1.34 6.617,5.426 -1.484,1.934 -10.039,-8.176 1.637,-2.008 9.812,1.187 -6.543,-5.277 1.563,-1.93 9.961,8.176 z"
         style="fill:none;stroke:#262524;stroke-width:1.04069;stroke-linecap:butt;stroke-linejoin:miter;stroke-miterlimit:22.92;stroke-dasharray:none;stroke-opacity:1"
         id="path14" />
      <path
         d="m 292.73,402.598 c -25.519,10.851 -52.23,16.277 -80.132,16.277 -27.899,0 -54.61,-5.426 -80.133,-16.277 C 107.785,392.141 85.9297,377.371 66.9023,358.293 47.8203,339.266 33.0547,317.41 22.5977,292.73 11.7461,267.207 6.32031,240.496 6.32031,212.598 c 0,-27.903 5.42579,-54.614 16.27739,-80.133 C 33.0547,107.785 47.7969,85.9023 66.8281,66.8242 85.9063,47.7969 107.785,33.0508 132.465,22.5977 157.988,11.7422 184.699,6.31641 212.598,6.31641 c 27.902,0 54.613,5.42579 80.132,16.28129 24.68,10.4531 46.563,25.1992 65.637,44.2265 19.031,19.0781 33.778,40.9608 44.231,65.6408 10.855,25.519 16.281,52.23 16.281,80.133 0,27.898 -5.426,54.609 -16.281,80.132 -10.453,24.68 -25.2,46.536 -44.231,65.563 -19.074,19.078 -40.957,33.848 -65.637,44.305 z m 115.743,-107.34 c 11.148,-26.363 16.722,-53.918 16.722,-82.66 0,-28.746 -5.574,-56.274 -16.722,-82.586 C 397.668,104.59 382.453,82.0391 362.828,62.3633 343.156,42.7422 320.605,27.5273 295.184,16.7227 268.871,5.57422 241.344,-0.00390625 212.598,-0.00390625 183.855,-0.00390625 156.301,5.57422 129.938,16.7227 104.516,27.5273 81.9922,42.7422 62.3672,62.3633 42.7422,81.9883 27.5273,104.512 16.7266,129.938 5.57422,156.301 0,183.852 0,212.598 c 0,28.742 5.57422,56.269 16.7266,82.586 10.8007,25.421 26.0156,47.968 45.6406,67.644 19.6719,19.625 42.2228,34.84 67.6448,45.641 26.316,11.152 53.843,16.726 82.586,16.726 28.746,0 56.297,-5.574 82.66,-16.726 25.426,-10.801 47.945,-26.016 67.57,-45.641 19.625,-19.625 34.84,-42.148 45.645,-67.57"
         style="fill:#488a77;fill-opacity:1;fill-rule:evenodd;stroke:none"
         id="path16" />
      <path
         d="m 320.086,321.941 c 14.125,-14.121 25.051,-30.3 32.781,-48.539 8.031,-18.879 12.043,-38.656 12.043,-59.32 0,-20.664 -4.012,-40.461 -12.043,-59.394 -7.73,-18.235 -18.656,-34.415 -32.781,-48.54 -14.074,-14.0738 -30.254,-24.9761 -48.539,-32.7066 -18.883,-8.0273 -38.656,-12.043 -59.32,-12.043 -20.664,0 -40.438,4.0157 -59.321,12.043 -18.285,7.7305 -34.465,18.6328 -48.539,32.7066 -14.1248,14.125 -25.0506,30.305 -32.7811,48.54 -8.0312,18.933 -12.0429,38.73 -12.0429,59.394 0,20.664 4.0117,40.441 12.0429,59.32 7.7305,18.239 18.6563,34.418 32.7811,48.539 14.074,14.075 30.254,24.981 48.539,32.711 18.883,8.028 38.657,12.039 59.321,12.039 20.664,0 40.437,-4.011 59.32,-12.039 18.234,-7.73 34.418,-18.636 48.539,-32.711"
         style="fill:#488a77;fill-opacity:1;fill-rule:evenodd;stroke:none"
         id="path18" />
      <path
         d="m 324.621,326.477 c 14.719,-14.715 26.117,-31.59 34.195,-50.622 8.375,-19.722 12.563,-40.339 12.563,-61.847 0,-21.555 -4.188,-42.195 -12.563,-61.922 -8.078,-19.027 -19.453,-35.902 -34.121,-50.621 -14.718,-14.6681 -31.593,-26.0392 -50.621,-34.1212 -19.722,-8.375 -40.363,-12.5625 -61.922,-12.5625 -21.507,0 -42.125,4.1875 -61.847,12.5625 -19.028,8.082 -35.903,19.4765 -50.6214,34.1952 C 84.9648,116.258 73.5938,133.133 65.5625,152.16 57.1875,171.836 53,192.453 53,214.008 c 0,21.558 4.1875,42.176 12.5625,61.847 8.0781,19.079 19.4531,35.954 34.1211,50.622 14.7184,14.718 31.5934,26.117 50.6214,34.195 19.722,8.375 40.34,12.562 61.847,12.562 21.508,0 42.125,-4.187 61.848,-12.562 19.027,-8.078 35.902,-19.477 50.621,-34.195 z m -51.141,32.781 c -19.578,8.277 -40.019,12.414 -61.328,12.414 -21.308,0 -41.726,-4.137 -61.254,-12.414 C 132.02,351.23 115.32,339.934 100.797,325.363 86.2305,310.844 74.9297,294.141 66.9023,275.262 58.625,255.734 54.4883,235.316 54.4883,214.008 c 0,-21.309 4.1367,-41.75 12.414,-61.324 7.9766,-18.832 19.254,-35.536 33.8207,-50.106 14.621,-14.5663 31.347,-25.8397 50.175,-33.8202 19.528,-8.2773 39.946,-12.414 61.254,-12.414 21.309,0 41.727,4.1367 61.254,12.414 18.879,7.9805 35.606,19.2539 50.176,33.8202 14.57,14.57 25.844,31.297 33.82,50.18 8.278,19.523 12.414,39.941 12.414,61.25 0,21.308 -4.136,41.726 -12.414,61.254 -7.976,18.879 -19.25,35.605 -33.82,50.176 -14.57,14.57 -31.269,25.843 -50.102,33.82"
         style="fill:#30ad54;fill-opacity:1;fill-rule:evenodd;stroke:none"
         id="path20" />
      <path
         d="m 310.051,335.695 c -4.012,3.27 -8.547,6.543 -13.602,9.813 -12.39,7.98 -25.621,14.074 -39.695,18.285 -14.473,4.312 -29.34,6.469 -44.602,6.469 -21.113,0 -41.355,-4.114 -60.73,-12.34 -18.684,-7.93 -35.234,-19.106 -49.656,-33.524 -14.4222,-14.421 -25.598,-30.972 -33.5277,-49.66 -8.2266,-19.324 -12.3399,-39.57 -12.3399,-60.73 0,-21.11 4.0899,-41.356 12.2657,-60.731 1.289,-2.972 2.6757,-5.972 4.164,-8.996 7.6328,-15.211 17.4453,-28.765 29.4379,-40.66 3.714,-3.7655 7.879,-7.5312 12.488,-11.3007 4.508,-3.5664 9.066,-6.8359 13.676,-9.8086 12.34,-7.9804 25.547,-14.0742 39.621,-18.289 14.472,-4.3125 29.34,-6.4649 44.601,-6.4649 21.161,0 41.407,4.1133 60.731,12.3399 18.683,7.9257 35.234,19.1015 49.656,33.5233 14.422,14.422 25.598,30.973 33.527,49.656 8.227,19.328 12.34,39.571 12.34,60.731 0,21.113 -4.09,41.355 -12.265,60.73 -1.239,2.977 -2.629,5.977 -4.164,8.996 -7.633,15.215 -17.446,28.77 -29.438,40.664 -3.715,3.766 -7.879,7.532 -12.488,11.297 z m -26.238,22.004 c 15.46,-7.781 29.41,-17.84 41.847,-30.179 4.067,-4.114 7.906,-8.403 11.524,-12.86 3.519,-4.363 6.886,-9.047 10.109,-14.051 8.227,-12.738 14.496,-26.312 18.809,-40.738 4.461,-14.914 6.687,-30.203 6.687,-45.863 0,-21.703 -4.211,-42.52 -12.637,-62.442 C 351.977,132.391 340.48,115.367 325.66,100.5 310.797,85.6836 293.773,74.1836 274.594,66.0078 254.672,57.582 233.859,53.3711 212.152,53.3711 c -21.656,0 -42.468,4.2383 -62.441,12.7109 -3.469,1.4883 -6.543,2.8985 -9.219,4.2383 C 124.98,78.0977 111.059,88.1602 98.7188,100.5 v 0.074 c -3.8672,3.817 -7.7305,8.078 -11.5977,12.785 -3.5195,4.36 -6.8867,9.043 -10.1094,14.051 -8.1758,12.735 -14.4219,26.313 -18.7344,40.735 -4.457,14.918 -6.6875,30.203 -6.6875,45.863 0,21.707 4.211,42.519 12.6368,62.441 8.125,19.18 19.625,36.203 34.4922,51.071 14.8162,14.816 31.8402,26.312 51.0662,34.492 19.871,8.422 40.66,12.636 62.367,12.636 21.657,0 42.469,-4.238 62.442,-12.71 3.469,-1.489 6.543,-2.903 9.219,-4.239"
         style="fill:#488a77;fill-opacity:1;fill-rule:evenodd;stroke:none"
         id="path22" />
      <path
         d="m 195.723,90.0938 -8.473,-3.0508 -0.074,-0.0742 -5.871,-1.8555 h -0.075 l -0.152,-0.0742 -2.82,-0.4493 -0.153,-0.0742 h -3.121 l -0.222,0.0742 -2.602,0.6719 -0.222,0.0742 -0.817,0.4454 -10.336,-68.0157 1.934,-0.5234 h 7.062 c 5.352,-0.0469 10.407,0.6211 15.164,2.0078 4.211,1.2383 8.774,3.2461 13.68,6.0234 l 0.148,0.0743 h 0.075 l 6.093,0.2968 2.75,-0.6718 1.934,-1.1875 0.148,-0.0743 1.934,-1.9336 0.074,-0.1484 0.074,-0.0742 0.743,-1.1133 0.593,0.9649 0.079,0.0742 1.632,2.1562 0.297,0.1485 2.156,1.3359 h 0.223 l 2.379,0.5234 h 3.121 l 2.977,-0.2968 h 0.148 l 0.074,-0.0743 c 6.539,-3.7187 11.621,-6.1953 15.239,-7.4336 6.047,-2.082 11.746,-2.5546 17.097,-1.414 l 5.352,1.3398 -10.258,68.0157 -0.894,-0.5196 h -0.223 l -2.676,-0.6719 -0.223,-0.0742 h -3.046 l -0.149,0.0742 -2.824,0.4493 -0.149,0.0742 -2.976,0.8906 h -0.074 l -2.825,0.9649 -0.074,0.0742 -8.472,3.0508 -5.055,0.8906 -2.305,-0.1485 c -2.281,0.0508 -4.113,-0.3984 -5.5,-1.3398 -1.437,-0.9414 -2.629,-2.5508 -3.57,-4.8281 -1.336,2.0781 -2.774,3.6133 -4.313,4.6054 -1.98,1.2383 -4.484,1.8086 -7.504,1.711 z"
         style="fill:none;stroke:#ffffff;stroke-width:5.94681;stroke-linecap:butt;stroke-linejoin:miter;stroke-miterlimit:22.92;stroke-dasharray:none;stroke-opacity:1"
         id="path24" />
      <path
         d="m 195.723,90.0938 5.132,0.8906 c 3.02,0.0976 5.524,-0.4727 7.504,-1.711 1.539,-0.9921 2.977,-2.5273 4.313,-4.6054 0.941,2.2773 2.133,3.8867 3.57,4.8281 1.387,0.9414 3.219,1.3906 5.5,1.3398 l 2.305,0.1485 5.055,-0.8906 8.472,-3.0508 0.074,-0.0742 2.825,-0.9649 h 0.074 l 2.976,-0.8906 0.149,-0.0742 2.824,-0.4493 0.149,-0.0742 h 3.046 l 0.223,0.0742 2.676,0.6719 h 0.223 l 0.894,0.5196 10.258,-68.0157 -5.352,-1.3398 c -5.351,-1.1406 -11.05,-0.668 -17.097,1.414 -3.618,1.2383 -8.7,3.7149 -15.239,7.4336 l -0.074,0.0743 h -0.148 l -2.977,0.2968 h -3.121 l -2.379,-0.5234 h -0.223 l -2.156,-1.3359 -0.297,-0.1485 -1.632,-2.1562 -0.079,-0.0742 -0.593,-0.9649 -0.743,1.1133 -0.074,0.0742 -0.074,0.1484 -1.934,1.9336 -0.148,0.0743 -1.934,1.1875 -2.75,0.6718 -6.093,-0.2968 h -0.075 l -0.148,-0.0743 c -4.906,-2.7773 -9.469,-4.7851 -13.68,-6.0234 -4.757,-1.3867 -9.812,-2.0547 -15.164,-2.0078 h -7.062 l -1.934,0.5234 10.336,68.0157 0.817,-0.4454 0.222,-0.0742 2.602,-0.6719 0.222,-0.0742 h 3.121 l 0.153,0.0742 2.82,0.4493 0.152,0.0742 h 0.075 l 5.871,1.8555 0.074,0.0742 8.473,3.0508"
         style="fill:#ffffff;fill-opacity:1;fill-rule:evenodd;stroke:none"
         id="path26" />
      <path
         d="m 195.945,88.1602 -2.523,-0.8907 h -0.152 l -5.575,-2.0078 h -0.074 l -0.074,-0.0742 -2.899,-0.8945 H 184.5 l -2.75,-0.8907 h -0.074 l -0.074,-0.0742 h -0.297 l -2.828,-0.5195 h -3.938 l -0.223,0.0742 -2.082,0.5195 -9.738,-62.0703 c 2.379,-0.8906 5.996,-1.0898 10.856,-0.5937 3.961,0.4453 7.656,1.2148 11.074,2.3047 4.015,1.1406 8.449,3.0234 13.304,5.6484 l 0.149,0.0742 0.223,0.0742 h 0.074 l 0.148,0.0743 h 0.153 l 2.898,0.2968 h 0.074 l 0.149,0.0743 h 3.121 l 0.148,-0.0743 h 0.223 l 2.23,-0.5195 0.223,-0.0742 h 0.297 l 0.148,-0.1484 0.223,-0.0743 2.082,-1.1914 0.223,-0.1484 0.152,-0.0742 0.07,-0.1485 1.563,-1.4843 0.969,1.1875 0.222,0.2226 0.149,0.2227 0.222,0.1484 2.231,1.2656 0.222,0.0743 0.149,0.1484 0.297,0.0742 h 0.222 l 2.379,0.5195 h 0.149 l 0.222,0.0743 h 2.973 l 0.074,-0.0743 h 0.149 l 2.976,-0.2968 h 0.223 l 0.074,-0.0743 h 0.149 l 0.222,-0.0742 0.149,-0.0742 c 6.047,-3.2695 11,-5.5 14.867,-6.6914 8.078,-2.2773 14.644,-2.5508 19.699,-0.8164 l 0.52,0.1484 -9.813,62.0703 -2.23,-0.5195 -0.149,-0.0742 h -3.793 l -2.82,0.5195 h -0.301 l -0.074,0.0742 -2.973,0.8165 -0.074,0.0742 -2.824,0.8945 -0.074,0.0742 h -0.075 l -5.648,2.0078 h -0.074 l -2.606,0.8907 -4.531,0.8164 -2.305,-0.1485 c -2.082,0 -3.617,-0.3476 -4.609,-1.039 -1.289,-0.7461 -2.281,-2.0821 -2.973,-4.0157 l -1.117,-2.6015 -1.558,2.3789 c -1.192,1.832 -2.481,3.1484 -3.868,3.9414 -1.683,1.0391 -3.89,1.5351 -6.617,1.4844 z m 2.082,3.1211 2.453,0.2968 h 0.153 v 0.0742 c 3.316,0.0508 6.094,-0.5937 8.324,-1.9296 1.141,-0.6485 2.203,-1.5625 3.195,-2.7539 0.844,1.3398 1.832,2.3554 2.973,3.0507 1.637,0.9883 3.719,1.4844 6.246,1.4844 l 2.231,0.1484 h 0.148 l 0.148,-0.0742 2.305,-0.2226 0.074,-0.0742 h 0.075 l 2.75,-0.5938 h 0.148 l 4.16,-1.4141 v 0.0743 l 4.313,-1.6329 h 0.074 l 5.726,-1.7851 2.825,-0.4453 h 2.75 l 2.675,0.5937 2.602,1.4883 10.703,-68.168 -3.344,-0.8906 -3.418,-0.1484 c -5.703,-1.1406 -11.597,-0.7696 -17.695,1.1133 -4.308,1.289 -9.391,3.5703 -15.238,6.8398 l -5.426,0.2969 -2.305,-0.5196 -1.929,-1.039 -1.489,-1.8594 v -0.0742 l -1.859,-2.6758 -0.223,0.3711 -1.785,2.4531 -1.781,1.7852 -1.934,1.039 -2.23,0.5196 -5.426,-0.2969 c -4.808,-2.625 -9.367,-4.5586 -13.68,-5.7969 -4.757,-1.3398 -9.933,-2.0078 -15.535,-2.0078 h -7.285 l -0.148,0.0742 -3.121,0.8164 10.703,68.168 2.601,-1.4883 2.602,-0.5937 h 2.828 l 2.82,0.4453 2.754,0.8164 h 0.074 l 2.899,0.9687 h 0.074 l 2.676,1.0391 0.148,0.0742 5.649,1.8594 h 0.148 l 2.676,0.5938 h 0.148"
         style="fill:#488a77;fill-opacity:1;fill-rule:evenodd;stroke:none"
         id="path28" />
      <path
         d="m 159.004,19.5469 c 2.922,-0.543 6.316,-0.543 10.184,0 1.882,0.25 5.375,0.9179 10.48,2.0078 5.105,0.6445 10.434,2.1328 15.98,4.4609 l 2.903,0.9649 0.148,0.0742 6.168,0.2226 2.231,-0.371 0.519,-0.1485 2.231,-0.9648 0.148,-0.1485 1.563,-1.1914 0.148,-0.1484 0.742,-0.8906 0.52,0.5937 0.148,0.2227 1.563,1.4883 0.222,0.1484 0.223,0.0742 1.934,0.8164 0.222,0.1485 h 0.223 l 2.453,0.371 6.172,-0.2226 0.074,-0.0742 c 1.137,-0.4961 3.344,-1.3633 6.613,-2.6016 7.188,-2.7734 13.555,-4.1601 19.106,-4.1601 3.617,-0.2969 5.797,-0.4727 6.543,-0.5235 2.426,-0.0976 4.633,0 6.613,0.2969 l -7.359,-8.3984 -89.797,0.1484 -8.918,7.8047"
         style="fill:#488a77;fill-opacity:1;fill-rule:evenodd;stroke:none"
         id="path30" />
      <path
         d="m 200.109,77.6055 3.047,-3.2735 -0.371,-1.2617 c 7.039,-8.625 17.024,-20.3672 29.957,-35.2344 1.438,-1.8867 1.586,-3.6445 0.446,-5.2773 -0.047,0 -0.493,-0.0508 -1.336,-0.1523 -0.594,-0.0469 -1.067,-0.0235 -1.414,0.0781 l -2.75,1.7812 c -10.555,13.4297 -19.7,25.5235 -27.43,36.2774 -0.047,-0.1016 -0.195,-0.1758 -0.445,-0.2227 -0.247,-0.0508 -0.395,-0.1484 -0.446,-0.2969 -1.437,-2.9765 -2.801,-7.0898 -4.09,-12.3398 -6.687,2.8711 -10.703,7.6055 -12.043,14.1953 5.602,0.25 9.914,1.4649 12.938,3.6445 l -1.488,2.0821 1.039,1.3359 1.785,0.3711 1.637,-1.8594 0.964,0.1524"
         style="fill:#488a77;fill-opacity:1;fill-rule:evenodd;stroke:none"
         id="path32" />
      <path
         d="m 190.445,40.2148 c -0.543,0 -1.09,-0.3242 -1.632,-0.9687 -0.547,-0.6445 -0.821,-1.3359 -0.821,-2.0781 0,-0.7969 0.348,-1.5157 1.043,-2.1563 0.645,-0.5976 1.438,-0.9179 2.379,-0.9687 0.891,0 1.586,0.2968 2.078,0.8945 0.449,0.543 0.621,1.2383 0.524,2.0781 0,0.3477 -0.223,0.4219 -0.672,0.2227 -0.297,-0.0469 -0.817,0.125 -1.559,0.5234 -0.398,0.7422 -0.547,1.3867 -0.445,1.9297 0.148,0.3477 -0.149,0.5234 -0.895,0.5234 z m 47.95,38.5782 c -0.25,-1.4375 -0.176,-2.9258 0.222,-4.461 2.278,-4.707 2.574,-9.414 0.891,-14.1211 -0.047,-0.4961 0.769,-0.8203 2.453,-0.9687 -2.875,-3.6172 -6.539,-5.1797 -11,-4.6836 3.418,2.5273 4.633,5.2305 3.641,8.1016 0.992,-0.2969 1.91,-0.7891 2.75,-1.4844 0.394,1.1406 0.171,2.875 -0.668,5.2031 -1.536,0.9922 -3.172,1.4141 -4.907,1.2656 -2.726,-1.4375 -7.16,-4.7343 -13.304,-9.8867 -3.52,-2.9258 -8.996,-7.5586 -16.43,-13.9023 l 0.816,-0.8907 c 0.793,0.1954 1.34,0.0977 1.637,-0.2968 0.246,-0.3985 0.199,-0.9414 -0.148,-1.6367 l 0.816,-1.043 0.52,0.1523 0.523,-0.7461 -0.445,-0.5195 1.261,-2.082 -2.23,-1.8555 -1.559,1.2617 -1.265,-0.4453 -0.594,0.668 0.297,0.5937 -1.488,1.1914 -0.668,-0.0742 -0.594,0.5195 0.445,0.8165 -1.265,1.0429 -1.93,-1.5625 c 0.098,-0.3945 0.172,-0.9922 0.223,-1.7812 0.296,-1.2422 -0.125,-2.4805 -1.266,-3.7188 -1.141,-1.289 -2.5,-1.9062 -4.09,-1.8594 -1.586,0.0508 -2.871,0.5938 -3.863,1.6368 -0.942,1.039 -1.41,2.3515 -1.41,3.9414 -0.051,1.5351 0.468,2.8476 1.558,3.9375 0.992,1.039 2.231,1.5625 3.715,1.5625 0.992,0 1.934,-0.25 2.828,-0.7461 l 1.707,1.4883 -0.816,1.4101 -0.817,-0.2226 -0.671,0.8945 0.375,0.8906 -0.969,1.3399 -0.668,-0.2266 -0.445,0.5977 0.371,1.1875 -0.895,1.4882 1.934,1.7852 1.636,-1.4883 0.743,0.4453 0.519,-0.7422 -0.07,-0.6679 1.113,-0.8946 c 0.691,0.1016 1.066,0.1485 1.113,0.1485 0.348,0 0.598,-0.2461 0.746,-0.7422 l -0.074,-0.7422 0.742,-0.7422 c 7.188,5.9922 12.438,10.4531 15.758,13.3789 5.899,5.1524 9.715,9.1172 11.449,11.8945 0.743,1.6836 0.618,3.418 -0.371,5.2032 -1.488,1.7812 -3.394,2.4023 -5.722,1.8593 1.336,-0.8945 2.031,-2.1835 2.078,-3.8671 -3.668,1.5859 -6.715,1.0898 -9.141,-1.4883 0.297,4.2617 2.672,7.7578 7.137,10.4804 v -2.5273 c 5.894,0.5977 10.207,-0.1719 12.934,-2.3047 1.832,-0.5937 3.441,-0.914 4.832,-0.9648"
         style="fill:#488a77;fill-opacity:1;fill-rule:evenodd;stroke:none"
         id="path34" />
      <path
         d="m 236.313,165.766 -24.161,-44.082 h -11.449 l 17.617,31.742 c 0.45,0.793 0.547,1.461 0.297,2.008 -0.297,0.543 -0.863,0.816 -1.707,0.816 h -2.898 l 5.277,9.367 z"
         style="fill:none;stroke:#ffffff;stroke-width:3.79109;stroke-linecap:butt;stroke-linejoin:miter;stroke-miterlimit:22.92;stroke-dasharray:none;stroke-opacity:1"
         id="path36" />
      <path
         d="m 236.313,165.766 -24.161,-44.082 h -11.449 l 17.617,31.742 c 0.45,0.793 0.547,1.461 0.297,2.008 -0.297,0.543 -0.863,0.816 -1.707,0.816 h -2.898 l 5.277,9.367 17.024,0.149"
         style="fill:#322f30;fill-opacity:1;fill-rule:evenodd;stroke:none"
         id="path38" />
      <path
         d="m 248.277,140.566 c 0.348,0.051 0.571,0.422 0.672,1.114 0.098,0.695 -0.148,1.066 -0.746,1.117 l -5.797,0.074 c -0.593,0 -1.386,-0.992 -2.379,-2.973 l -3.64,-6.914 c -0.297,-0.546 -0.496,-1.117 -0.598,-1.711 -0.098,-0.695 0.027,-1.214 0.375,-1.558 l 4.383,-0.227 c 0.844,-0.047 1.488,0.2 1.933,0.746 0.348,0.594 0.571,0.965 0.668,1.114 z m -2.156,9.145 c 0.152,-0.398 0.399,-0.621 0.746,-0.672 l 3.641,-0.074 c 0.301,0 0.672,0.199 1.117,0.594 0.348,0.347 0.594,0.644 0.742,0.894 l 3.274,5.945 c 0.097,0.25 0.144,0.52 0.144,0.821 -0.047,0.394 -0.246,0.617 -0.594,0.668 l -3.789,-0.074 c -0.449,0 -0.82,-0.098 -1.117,-0.297 -0.148,-0.102 -0.371,-0.25 -0.668,-0.45 l -3.496,-6.316 c -0.144,-0.297 -0.144,-0.645 0,-1.039 z m 20.965,8.324 -5.352,-9.293 c -0.593,-0.992 -1.66,-1.808 -3.199,-2.453 l -1.781,-0.742 c 1.289,-0.695 2.031,-1.535 2.23,-2.527 0.149,-0.891 -0.148,-2.032 -0.89,-3.422 l -5.653,-10.629 c -1.336,-2.528 -2.824,-4.262 -4.461,-5.203 -1.585,-0.891 -3.839,-1.336 -6.761,-1.336 h -12.86 c -2.429,0 -3.964,0.816 -4.609,2.453 -0.645,1.484 -0.422,3.246 0.668,5.277 l 5.648,10.629 c 1.141,1.981 2.207,3.297 3.2,3.941 1.238,0.891 2.773,1.336 4.605,1.336 -1.137,0.297 -1.758,1.043 -1.855,2.231 -0.102,0.941 0.121,1.933 0.668,2.973 l 5.871,10.851 c 1.242,2.281 2.304,3.621 3.199,4.016 0.492,0.199 2.254,0.324 5.277,0.371 h 11.742 c 1.786,0 3.297,-0.52 4.536,-1.559 1.339,-1.09 1.836,-2.379 1.488,-3.867 -0.102,-0.348 -0.348,-0.867 -0.746,-1.562 -0.196,-0.344 -0.52,-0.84 -0.965,-1.485 z"
         style="fill:none;stroke:#ffffff;stroke-width:3.86543;stroke-linecap:butt;stroke-linejoin:miter;stroke-miterlimit:22.92;stroke-dasharray:none;stroke-opacity:1"
         id="path40" />
      <path
         d="m 242.332,142.871 c -0.547,-0.051 -1.312,-1.043 -2.305,-2.973 l -3.64,-6.914 c -0.297,-0.546 -0.496,-1.117 -0.598,-1.711 -0.098,-0.695 0.027,-1.214 0.375,-1.558 l 4.383,-0.227 c 0.797,0 1.391,0.2 1.785,0.598 0.445,0.691 0.719,1.113 0.816,1.262 l 5.129,9.218 c 0.348,0.051 0.571,0.422 0.672,1.114 0.098,0.695 -0.148,1.066 -0.746,1.117 z m 3.789,6.84 c 0.152,-0.398 0.399,-0.621 0.746,-0.672 l 3.641,-0.074 0.375,0.074 c 0.445,0.25 0.941,0.719 1.484,1.414 l 3.274,5.945 c 0.097,0.25 0.144,0.52 0.144,0.821 -0.047,0.394 -0.246,0.617 -0.594,0.668 l -3.789,-0.074 -0.519,-0.075 c -0.25,-0.05 -0.473,-0.148 -0.672,-0.297 -0.344,-0.25 -0.543,-0.375 -0.594,-0.375 l -3.496,-6.316 c -0.144,-0.297 -0.144,-0.645 0,-1.039 z m 20.965,8.324 -5.352,-9.293 c -0.593,-0.992 -1.66,-1.808 -3.199,-2.453 l -1.781,-0.742 c 1.289,-0.695 2.031,-1.535 2.23,-2.527 0.149,-0.891 -0.148,-2.032 -0.89,-3.422 l -5.653,-10.629 c -0.496,-0.989 -1.015,-1.809 -1.558,-2.453 -1.043,-1.438 -2.231,-2.453 -3.57,-3.047 -1.29,-0.645 -2.95,-0.992 -4.981,-1.039 h -13.973 c -2.429,0 -3.964,0.816 -4.609,2.453 -0.645,1.484 -0.422,3.246 0.668,5.277 l 5.648,10.629 c 1.141,1.981 2.207,3.297 3.2,3.941 1.238,0.891 2.773,1.336 4.605,1.336 -1.137,0.297 -1.758,1.043 -1.855,2.231 -0.102,0.941 0.121,1.933 0.668,2.973 l 5.871,10.851 c 1.289,2.281 2.355,3.621 3.199,4.016 0.543,0.25 2.254,0.371 5.129,0.371 h 11.89 c 1.786,0 3.297,-0.52 4.536,-1.559 1.339,-1.09 1.836,-2.379 1.488,-3.867 -0.102,-0.348 -0.348,-0.867 -0.746,-1.562 -0.196,-0.344 -0.52,-0.84 -0.965,-1.485"
         style="fill:#322f30;fill-opacity:1;fill-rule:evenodd;stroke:none"
         id="path42" />
      <path
         d="m 300.613,166.508 c 1.883,0 3.293,-0.445 4.235,-1.336 0.941,-0.895 1.34,-2.109 1.191,-3.645 -0.101,-0.593 -0.223,-1.015 -0.371,-1.261 -0.051,-0.25 -0.301,-0.793 -0.746,-1.637 l -16.203,-30.551 c -1.34,-2.43 -2.801,-4.113 -4.387,-5.055 -1.637,-0.894 -4.039,-1.339 -7.211,-1.339 h -13.156 c -1.883,0 -3.246,0.421 -4.09,1.265 -0.941,0.793 -1.34,1.957 -1.187,3.492 0,0.2 0.097,0.645 0.296,1.34 l 0.594,1.41 15.762,30.481 c 1.285,2.476 2.723,4.211 4.308,5.199 1.688,0.992 4.137,1.488 7.36,1.488 z m -12.191,-10.11 c -0.992,0 -1.836,-0.246 -2.527,-0.742 -0.793,-0.496 -1.415,-1.215 -1.86,-2.156 L 274,134.246 l -0.371,-0.965 c -0.102,-0.644 0.098,-1.113 0.594,-1.414 0.394,-0.344 1.039,-0.519 1.933,-0.519 0.84,0 1.586,0.222 2.231,0.668 0.593,0.449 1.164,1.168 1.707,2.156 l 10.41,19.922 0.07,0.371 c 0.051,0.598 -0.097,1.066 -0.445,1.414 -0.395,0.348 -0.965,0.519 -1.707,0.519 z"
         style="fill:none;stroke:#ffffff;stroke-width:3.79109;stroke-linecap:butt;stroke-linejoin:miter;stroke-miterlimit:22.92;stroke-dasharray:none;stroke-opacity:1"
         id="path44" />
      <path
         d="m 300.613,166.508 c 1.883,0 3.293,-0.445 4.235,-1.336 0.941,-0.895 1.34,-2.109 1.191,-3.645 -0.101,-0.593 -0.223,-1.015 -0.371,-1.261 -0.051,-0.25 -0.301,-0.793 -0.746,-1.637 l -16.203,-30.551 c -1.34,-2.43 -2.801,-4.113 -4.387,-5.055 -0.695,-0.347 -1.437,-0.621 -2.23,-0.82 -1.239,-0.344 -2.899,-0.519 -4.981,-0.519 h -13.156 c -1.883,0 -3.246,0.421 -4.09,1.265 -0.941,0.793 -1.34,1.957 -1.187,3.492 0,0.2 0.097,0.645 0.296,1.34 l 0.594,1.41 15.762,30.481 c 1.285,2.476 2.723,4.211 4.308,5.199 0.844,0.449 1.661,0.77 2.454,0.969 1.238,0.348 2.875,0.519 4.906,0.519 z m -12.191,-10.11 c -0.992,0 -1.836,-0.246 -2.527,-0.742 -0.793,-0.496 -1.415,-1.215 -1.86,-2.156 L 274,134.246 l -0.371,-0.965 c -0.102,-0.644 0.098,-1.113 0.594,-1.414 0.394,-0.344 1.039,-0.519 1.933,-0.519 0.84,0 1.586,0.222 2.231,0.668 0.593,0.449 1.164,1.168 1.707,2.156 l 10.41,19.922 0.07,0.371 c 0.051,0.598 -0.097,1.066 -0.445,1.414 -0.395,0.348 -0.965,0.519 -1.707,0.519"
         style="fill:#322f30;fill-opacity:1;fill-rule:evenodd;stroke:none"
         id="path46" />
      <path
         d="m 319.715,153.5 -2.973,-5.203 -0.222,-0.668 c -0.098,-0.645 0.097,-1.117 0.593,-1.414 0.399,-0.348 1.114,-0.52 2.157,-0.52 h 3.121 l 4.832,8.325 0.074,0.593 c 0.148,0.598 0,1.117 -0.445,1.563 -0.543,0.398 -1.215,0.594 -2.008,0.594 -1.09,0 -2.055,-0.274 -2.899,-0.817 -0.793,-0.594 -1.535,-1.41 -2.23,-2.453 z m 4.164,11.969 13.082,0.297 c 1.836,0.05 3.195,-0.371 4.09,-1.262 0.941,-0.844 1.262,-2.035 0.965,-3.57 0,-0.348 -0.125,-0.766 -0.371,-1.262 -0.051,-0.102 -0.297,-0.621 -0.743,-1.563 l -17.097,-30.105 c -1.387,-2.43 -2.852,-4.09 -4.387,-4.981 -1.637,-0.894 -4.016,-1.339 -7.137,-1.339 h -19.922 l 5.278,9.441 13.679,0.074 c 1.09,0 1.957,0.199 2.602,0.594 0.594,0.398 1.215,1.117 1.859,2.156 l 1.336,2.379 -9.367,-0.074 c -1.781,0 -3.098,0.398 -3.937,1.191 -0.844,0.84 -1.164,2.004 -0.965,3.493 0.097,0.593 0.222,1.015 0.371,1.261 0.098,0.399 0.32,0.895 0.668,1.489 l 8.398,15.164 c 1.34,2.378 2.801,4.066 4.387,5.054 1.637,0.942 4.039,1.461 7.211,1.563 z"
         style="fill:none;stroke:#ffffff;stroke-width:3.86543;stroke-linecap:butt;stroke-linejoin:miter;stroke-miterlimit:22.92;stroke-dasharray:none;stroke-opacity:1"
         id="path48" />
      <path
         d="m 321.945,165.395 15.016,0.371 c 1.836,0.05 3.195,-0.371 4.09,-1.262 0.941,-0.844 1.262,-2.035 0.965,-3.57 0,-0.348 -0.125,-0.766 -0.371,-1.262 -0.051,-0.102 -0.297,-0.621 -0.743,-1.563 l -17.097,-30.105 c -0.594,-1.141 -1.215,-2.059 -1.86,-2.75 -0.843,-0.992 -1.683,-1.734 -2.527,-2.231 -1.637,-0.894 -4.016,-1.339 -7.137,-1.339 h -19.922 l 5.278,9.441 13.679,0.074 c 1.09,0 1.957,0.199 2.602,0.594 0.594,0.398 1.215,1.117 1.859,2.156 l 1.336,2.379 -9.367,-0.074 c -1.781,0 -3.098,0.398 -3.937,1.191 -0.844,0.84 -1.164,2.004 -0.965,3.493 0.097,0.593 0.222,1.015 0.371,1.261 0.098,0.399 0.32,0.895 0.668,1.489 l 8.398,15.164 c 1.34,2.378 2.801,4.066 4.387,5.054 1.289,0.793 3.047,1.289 5.277,1.489 z m -2.23,-11.895 -2.973,-5.203 -0.222,-0.668 c -0.098,-0.645 0.097,-1.117 0.593,-1.414 0.399,-0.348 1.114,-0.52 2.157,-0.52 h 3.121 l 4.832,8.325 0.074,0.593 c 0.148,0.598 0,1.117 -0.445,1.563 -0.543,0.398 -1.215,0.594 -2.008,0.594 -1.09,0 -2.055,-0.274 -2.899,-0.817 -0.793,-0.594 -1.535,-1.41 -2.23,-2.453"
         style="fill:#322f30;fill-opacity:1;fill-rule:evenodd;stroke:none"
         id="path50" />
      <path
         d="m 102.656,113.953 234.973,0.594 -9.066,-9.586 -231.481,-0.148 z"
         style="fill:none;stroke:#ffffff;stroke-width:10.8529;stroke-linecap:butt;stroke-linejoin:miter;stroke-miterlimit:22.92;stroke-dasharray:none;stroke-opacity:1"
         id="path52" />
      <path
         d="m 102.656,113.953 234.973,0.594 -9.066,-9.586 -231.481,-0.148 5.574,9.14"
         style="fill:#322f30;fill-opacity:1;fill-rule:evenodd;stroke:none"
         id="path54" />
      <path
         d="m 336.219,316.145 -96.637,0.074 -39.918,-68.61 -52.332,68.239 -25.644,0.148 54.785,-70.246 c 6.39,-7.035 11.222,-15.535 14.496,-25.496 3.019,-9.168 4.086,-17.422 3.195,-24.754 l 56.719,100.723 57.164,-0.149 c 7.133,0.399 12.933,2.356 17.391,5.871 3.519,2.828 7.113,7.559 10.781,14.2 z"
         style="fill:none;stroke:#ffffff;stroke-width:10.8529;stroke-linecap:butt;stroke-linejoin:miter;stroke-miterlimit:22.92;stroke-dasharray:none;stroke-opacity:1"
         id="path56" />
      <path
         d="m 336.219,316.145 c -3.668,-6.641 -7.262,-11.372 -10.781,-14.2 -4.458,-3.515 -10.258,-5.472 -17.391,-5.871 L 250.883,296.223 194.164,195.5 c 0.891,7.332 -0.176,15.586 -3.195,24.754 -3.274,9.961 -8.106,18.461 -14.496,25.496 l -54.785,70.246 25.644,-0.148 52.332,-68.239 39.918,68.61 96.637,-0.074"
         style="fill:#322f30;fill-opacity:1;fill-rule:evenodd;stroke:none"
         id="path58" />
      <path
         d="m 111.578,316.145 65.785,-83.625 c 4.61,-6.692 7.532,-14.645 8.774,-23.864 1.238,-9.265 0.593,-18.312 -1.934,-27.133 -2.676,-9.414 -7.187,-17.293 -13.531,-23.636 -6.984,-7.039 -15.684,-11.574 -26.09,-13.606 h -23.859 l 9.882,18.211 8.922,0.227 c 7.086,0.199 13.11,2.476 18.063,6.836 4.66,4.066 7.879,9.39 9.664,15.984 1.734,6.59 1.809,13.379 0.223,20.367 -1.684,7.383 -5.032,13.926 -10.036,19.625 l -69.6519,90.91 z"
         style="fill:none;stroke:#ffffff;stroke-width:10.8529;stroke-linecap:butt;stroke-linejoin:miter;stroke-miterlimit:22.92;stroke-dasharray:none;stroke-opacity:1"
         id="path60" />
      <path
         d="m 111.578,316.145 65.785,-83.625 c 4.61,-6.692 7.532,-14.645 8.774,-23.864 1.238,-9.265 0.593,-18.312 -1.934,-27.133 -2.676,-9.414 -7.187,-17.293 -13.531,-23.636 -6.984,-7.039 -15.684,-11.574 -26.09,-13.606 h -23.859 l 9.882,18.211 8.922,0.227 c 7.086,0.199 13.11,2.476 18.063,6.836 4.66,4.066 7.879,9.39 9.664,15.984 1.734,6.59 1.809,13.379 0.223,20.367 -1.684,7.383 -5.032,13.926 -10.036,19.625 l -69.6519,90.91 23.7889,-0.296"
         style="fill:#322f30;fill-opacity:1;fill-rule:evenodd;stroke:none"
         id="path62" />
      <path
         d="m 164.43,144.578 c 6.937,4.61 12.613,9.813 17.023,15.613 l 42.52,76.563 22.82,-0.371 -48.242,-84.594 c -3.918,-6.836 -10.012,-13.453 -18.289,-19.848 -10.852,-8.375 -21.582,-12.586 -32.188,-12.636 l -42.297,-0.075 10.559,17.915 28.32,-0.075 c 5.551,-0.047 12.141,2.453 19.774,7.508 z"
         style="fill:none;stroke:#ffffff;stroke-width:11.0759;stroke-linecap:butt;stroke-linejoin:miter;stroke-miterlimit:22.92;stroke-dasharray:none;stroke-opacity:1"
         id="path64" />
      <path
         d="m 164.43,144.578 c 6.937,4.61 12.613,9.813 17.023,15.613 l 42.52,76.563 22.82,-0.371 -48.242,-84.594 c -3.918,-6.836 -10.012,-13.453 -18.289,-19.848 -10.852,-8.375 -21.582,-12.586 -32.188,-12.636 l -42.297,-0.075 10.559,17.915 28.32,-0.075 c 5.551,-0.047 12.141,2.453 19.774,7.508"
         style="fill:#322f30;fill-opacity:1;fill-rule:evenodd;stroke:none"
         id="path66" />
      <path
         d="m 316.074,281.207 c -1.883,-3.367 -5.082,-6.094 -9.59,-8.176 -3.57,-1.683 -7.136,-2.703 -10.703,-3.047 h -53.597 l 10.629,18.879 68.093,0.742 z"
         style="fill:none;stroke:#ffffff;stroke-width:11.2246;stroke-linecap:butt;stroke-linejoin:miter;stroke-miterlimit:22.92;stroke-dasharray:none;stroke-opacity:1"
         id="path68" />
      <path
         d="m 316.074,281.207 c -1.883,-3.367 -5.082,-6.094 -9.59,-8.176 -3.57,-1.683 -7.136,-2.703 -10.703,-3.047 h -53.597 l 10.629,18.879 68.093,0.742 -4.832,-8.398"
         style="fill:#322f30;fill-opacity:1;fill-rule:evenodd;stroke:none"
         id="path70" />
      <path
         d="m 302.766,256.156 c -1.782,-3.418 -5.153,-6.418 -10.11,-8.996 -4.211,-2.18 -8.051,-3.39 -11.519,-3.64 l -53.598,-0.075 10.703,18.957 68.539,1.411 z"
         style="fill:none;stroke:#ffffff;stroke-width:11.2246;stroke-linecap:butt;stroke-linejoin:miter;stroke-miterlimit:22.92;stroke-dasharray:none;stroke-opacity:1"
         id="path72" />
      <path
         d="m 302.766,256.156 c -1.782,-3.418 -5.153,-6.418 -10.11,-8.996 -4.211,-2.18 -8.051,-3.39 -11.519,-3.64 l -53.598,-0.075 10.703,18.957 68.539,1.411 -4.015,-7.657"
         style="fill:#322f30;fill-opacity:1;fill-rule:evenodd;stroke:none"
         id="path74" />
    </g>
  </g>
</svg>
